<svg width="696" height="660" viewBox="0 0 696 660" fill="none" xmlns="http://www.w3.org/2000/svg">
<path d="M410.12 21.3607C411.207 22.2814 412.286 23.212 413.358 24.1501C413.985 24.6969 414.611 25.2437 415.257 25.807C425.846 35.2199 435.743 45.4053 445.753 55.4239C448.94 58.6108 452.132 61.792 455.324 64.974C461.555 71.1886 467.78 77.4086 474.004 83.6309C479.064 88.6896 484.125 93.7468 489.187 98.8028C503.566 113.164 517.941 127.53 532.31 141.9C533.082 142.673 533.855 143.445 534.65 144.241C535.424 145.014 536.197 145.788 536.994 146.584C549.544 159.136 562.105 171.677 574.67 184.214C587.597 197.113 600.517 210.019 613.43 222.933C620.669 230.173 627.911 237.41 635.162 244.639C641.329 250.788 647.489 256.943 653.64 263.108C656.775 266.249 659.913 269.388 663.06 272.517C665.945 275.387 668.821 278.266 671.69 281.152C672.724 282.189 673.762 283.224 674.804 284.254C687.476 296.799 695.201 309.495 695.996 327.614C695.82 346.238 684.972 359.266 672.346 371.772C671.525 372.593 670.705 373.414 669.859 374.259C667.181 376.937 664.495 379.607 661.809 382.278C659.936 384.146 658.064 386.015 656.193 387.885C651.792 392.28 647.385 396.67 642.977 401.058C637.952 406.061 632.933 411.068 627.915 416.077C617.604 426.366 607.287 436.649 596.965 446.926C592.645 445.269 589.775 441.99 586.6 438.761C585.963 438.122 585.327 437.483 584.671 436.824C582.535 434.678 580.406 432.524 578.277 430.37C576.747 428.83 575.218 427.291 573.688 425.752C570.389 422.434 567.094 419.113 563.801 415.79C558.581 410.525 553.352 405.269 548.122 400.015C533.246 385.073 518.378 370.123 503.532 355.151C495.336 346.885 487.128 338.63 478.909 330.387C474.565 326.029 470.226 321.666 465.901 317.289C461.822 313.161 457.729 309.048 453.626 304.945C452.133 303.447 450.645 301.944 449.163 300.436C424.547 275.398 389.795 257.268 354.067 256.684C323.599 256.585 296.486 267.093 271.215 283.739C270.425 284.258 269.634 284.778 268.82 285.313C254.62 294.963 242.079 306.367 230.021 318.529C228.611 319.94 227.2 321.351 225.788 322.761C222.007 326.541 218.236 330.329 214.467 334.12C210.507 338.099 206.539 342.068 202.571 346.039C195.083 353.538 187.601 361.043 180.123 368.552C171.599 377.109 163.067 385.658 154.533 394.207C137.001 411.77 119.479 429.345 101.965 446.926C98.8262 445.533 96.6886 443.904 94.2593 441.488C93.5389 440.776 92.8184 440.064 92.0761 439.331C90.9056 438.159 90.9056 438.159 89.7114 436.963C88.8817 436.14 88.0519 435.317 87.197 434.469C84.4502 431.741 81.711 429.006 78.9727 426.27C78.0257 425.326 77.0786 424.382 76.1313 423.438C71.1656 418.491 66.2052 413.539 61.2495 408.581C56.6462 403.977 52.0319 399.384 47.4122 394.796C43.4355 390.845 39.4666 386.887 35.5035 382.922C33.1415 380.56 30.7758 378.202 28.4038 375.849C25.7519 373.217 23.1131 370.572 20.4771 367.924C19.7007 367.159 18.9244 366.394 18.1246 365.606C7.62377 354.984 1.54135 342.56 0.867188 327.547C1.44678 306.056 13.9927 292.565 28.4983 278.15C29.5215 277.125 30.5443 276.101 31.5667 275.075C34.3121 272.325 37.0636 269.581 39.8165 266.839C42.7135 263.95 45.6052 261.057 48.4976 258.164C53.35 253.313 58.2063 248.465 63.0652 243.62C68.6654 238.035 74.2604 232.446 79.8525 226.853C85.8354 220.869 91.8221 214.889 97.81 208.911C99.5233 207.2 101.236 205.488 102.949 203.775C105.647 201.078 108.349 198.382 111.052 195.689C112.038 194.706 113.024 193.722 114.008 192.737C122.352 184.39 122.352 184.39 126.69 180.708C133.416 174.922 139.528 168.448 145.772 162.153C147.266 160.651 148.76 159.149 150.254 157.647C153.461 154.423 156.667 151.198 159.872 147.971C164.951 142.86 170.036 137.754 175.122 132.65C175.983 131.787 176.844 130.923 177.73 130.033C179.49 128.267 181.249 126.502 183.008 124.736C194.839 112.862 206.665 100.984 218.477 89.0918C226.458 81.0562 234.448 73.0297 242.448 65.0133C246.673 60.7787 250.894 56.5397 255.103 52.2895C259.068 48.2871 263.044 44.2967 267.029 40.3148C268.48 38.8609 269.927 37.4026 271.369 35.9397C308.578 -1.78656 366.104 -12.6065 410.12 21.3607ZM309.223 100.071C301.33 110.053 295.999 123.847 296.688 136.758C298.673 152.278 304.247 166.132 316.715 176.051C329.589 185.195 344.166 188.987 359.875 186.457C374.043 183.032 386.598 175.314 394.423 162.838C401.869 150.066 404.355 135.76 400.84 121.239C395.874 105.693 387.33 94.7742 372.965 86.926C366.84 84.3322 360.62 82.4283 353.965 81.926C352.665 81.8229 351.366 81.7198 350.027 81.6135C334.295 81.882 319.931 88.6906 309.223 100.071Z" fill="#2450C8"/>
<path d="M386.025 328.787C388.56 331.009 390.977 333.302 393.364 335.682C394.339 336.621 394.339 336.621 395.333 337.58C405.558 348.209 408.793 362.124 408.728 376.389C408.386 392.112 401.416 405.514 390.331 416.443C376.783 428.944 360.422 432.524 342.439 432.029C326.842 431.224 314.188 423.468 303.364 412.682C302.715 412.055 302.065 411.429 301.396 410.783C291.171 400.155 287.936 386.239 288.001 371.974C288.343 356.251 295.313 342.85 306.398 331.92C327.97 312.015 362.988 310.554 386.025 328.787Z" fill="#CEB10C"/>
<path d="M244 362C244.99 362.495 244.99 362.495 246 363C245.856 364.016 245.711 365.032 245.562 366.078C241.697 394.214 246.593 421.441 263.113 445.016C265.008 447.414 266.974 449.712 269 452C269.516 452.657 270.031 453.315 270.562 453.992C287.042 474.509 314.333 485.634 339.875 488.625C369.735 491.175 397.571 482.457 421 464C422.228 463.049 422.228 463.049 423.48 462.078C444.107 444.992 455.339 418.907 457.815 392.694C458.132 388.087 458.105 383.491 458.062 378.875C458.056 377.44 458.056 377.44 458.049 375.977C458.037 373.651 458.02 371.326 458 369C464.13 374.071 469.731 379.595 475.342 385.228C476.367 386.254 477.393 387.279 478.419 388.305C481.185 391.07 483.948 393.839 486.71 396.609C489.605 399.51 492.502 402.407 495.399 405.305C500.876 410.786 506.35 416.268 511.824 421.752C518.059 427.998 524.297 434.242 530.535 440.485C543.36 453.32 556.181 466.159 569 479C565.07 483.701 560.986 488.161 556.651 492.489C555.735 493.41 555.735 493.41 554.801 494.349C552.772 496.386 550.74 498.419 548.708 500.453C547.245 501.92 545.783 503.388 544.321 504.856C540.36 508.829 536.396 512.799 532.432 516.769C529.952 519.252 527.472 521.735 524.993 524.219C517.226 531.999 509.458 539.777 501.687 547.552C492.732 556.511 483.784 565.477 474.842 574.448C467.917 581.394 460.987 588.335 454.052 595.271C449.915 599.409 445.781 603.549 441.653 607.694C437.769 611.595 433.878 615.488 429.982 619.376C428.558 620.799 427.136 622.225 425.718 623.653C404.032 645.481 379.003 658.938 347.688 659.312C330.452 659.244 313.795 655.048 298.688 646.688C298.066 646.345 297.445 646.003 296.805 645.65C284.843 638.715 275.393 628.671 265.728 618.955C264.21 617.436 262.691 615.918 261.172 614.4C257.073 610.302 252.98 606.197 248.889 602.092C244.603 597.793 240.312 593.501 236.021 589.207C227.907 581.087 219.798 572.962 211.691 564.835C202.457 555.578 193.217 546.327 183.976 537.077C164.978 518.057 145.986 499.031 127 480C130.509 475.83 134.077 471.798 137.936 467.944C138.394 467.485 138.852 467.026 139.325 466.553C140.838 465.038 142.354 463.527 143.871 462.016C144.965 460.921 146.06 459.827 147.154 458.732C150.108 455.778 153.065 452.827 156.022 449.876C159.119 446.786 162.213 443.692 165.307 440.599C171.159 434.75 177.014 428.904 182.87 423.058C189.539 416.4 196.206 409.739 202.872 403.078C216.578 389.382 230.288 375.69 244 362ZM321.562 558.812C317.295 567.519 315.904 576.496 318 586C319.297 589.611 320.942 592.767 323 596C323.41 596.648 323.82 597.297 324.242 597.965C328.936 604.312 337.275 608.613 345 610C354.585 610.869 362.755 609.679 370.734 604.082C377.487 598.438 382.327 591.774 384 583C384.936 571.671 382.955 562.733 375.75 553.816C368.788 546.59 360.387 543.828 350.625 542.562C337.706 544.122 329.97 549.111 321.562 558.812Z" fill="#CF1411"/>
</svg>
