<svg width="198" height="198" viewBox="0 0 198 198" fill="none" xmlns="http://www.w3.org/2000/svg">
<path d="M179 99C179 147.049 140.049 186 92 186C43.9512 186 5 147.049 5 99C5 50.9512 43.9512 12 92 12C140.049 12 179 50.9512 179 99ZM9.98534 99C9.98534 144.295 46.7046 181.015 92 181.015C137.295 181.015 174.015 144.295 174.015 99C174.015 53.7046 137.295 16.9853 92 16.9853C46.7046 16.9853 9.98534 53.7046 9.98534 99Z" fill="black"/>
<path d="M120.905 60.4735C120.5 60.4735 120.096 60.3725 119.742 60.1705C110.033 55.171 101.64 53.05 91.5773 53.05C81.5655 53.05 72.0593 55.4235 63.4127 60.1705C62.1992 60.827 60.6822 60.3725 59.9743 59.1605C59.659 58.5699 59.5883 57.8793 59.7774 57.2371C59.9665 56.595 60.4003 56.0526 60.9856 55.7265C70.3907 50.626 80.7059 48 91.5773 48C102.348 48 111.753 50.3735 122.068 55.676C123.332 56.3325 123.787 57.8475 123.13 59.0595C122.93 59.4805 122.615 59.8365 122.221 60.0867C121.828 60.3368 121.371 60.4709 120.905 60.4735ZM48.5467 86.986C48.0806 86.9903 47.6224 86.8656 47.2229 86.6258C46.8235 86.3859 46.4984 86.0402 46.2836 85.627C46.0689 85.2138 45.973 84.7493 46.0065 84.2849C46.0401 83.8206 46.2017 83.3747 46.4735 82.9965C51.4795 75.9265 57.8506 70.3715 65.4353 66.483C81.3127 58.302 101.64 58.2515 117.568 66.4325C125.152 70.321 131.524 75.8255 136.529 82.845C136.723 83.1164 136.862 83.4235 136.936 83.7485C137.011 84.0736 137.02 84.4101 136.964 84.7388C136.907 85.0674 136.786 85.3817 136.608 85.6634C136.429 85.9451 136.196 86.1886 135.923 86.38C134.76 87.188 133.192 86.9355 132.383 85.774C127.955 79.5139 122.073 74.4194 115.242 70.927C100.73 63.5035 82.1723 63.5035 67.7108 70.9775C60.8339 74.5125 55.0696 79.5625 50.5187 85.9255C50.1142 86.6325 49.3557 86.986 48.5467 86.986ZM80.1497 147.94C79.8181 147.944 79.4893 147.878 79.1845 147.748C78.8798 147.617 78.6057 147.425 78.3799 147.182C73.9808 142.789 71.6042 139.961 68.2164 133.85C64.7274 127.639 62.9071 120.063 62.9071 111.933C62.9071 96.9345 75.7506 84.7135 91.5268 84.7135C107.303 84.7135 120.146 96.9345 120.146 111.933C120.146 113.347 119.034 114.458 117.618 114.458C116.202 114.458 115.09 113.347 115.09 111.933C115.09 99.712 104.522 89.7635 91.5268 89.7635C78.5316 89.7635 67.9636 99.712 67.9636 111.933C67.9636 119.205 69.5816 125.922 72.6661 131.376C75.9022 137.183 78.1271 139.657 82.0206 143.596C82.9813 144.606 82.9813 146.172 82.0206 147.182C81.4644 147.687 80.807 147.94 80.1497 147.94ZM116.405 138.597C110.387 138.597 105.078 137.082 100.73 134.103C93.1954 129.002 88.6951 120.72 88.6951 111.933C88.6951 110.519 89.8076 109.408 91.2234 109.408C92.6392 109.408 93.7516 110.519 93.7516 111.933C93.7516 119.053 97.3923 125.77 103.561 129.911C107.151 132.335 111.348 133.497 116.405 133.497C117.618 133.497 119.641 133.345 121.663 132.992C123.029 132.739 124.343 133.648 124.596 135.062C124.849 136.426 123.939 137.739 122.523 137.991C119.641 138.547 117.113 138.597 116.405 138.597ZM106.241 149C106.039 149 105.786 148.95 105.584 148.899C97.544 146.677 92.2852 143.697 86.7737 138.294C83.2811 134.85 80.5116 130.744 78.6275 126.218C76.7434 121.691 75.7825 116.835 75.8011 111.933C75.8011 103.752 82.7791 97.086 91.3751 97.086C99.9711 97.086 106.949 103.752 106.949 111.933C106.949 117.336 111.652 121.73 117.466 121.73C123.281 121.73 127.984 117.336 127.984 111.933C127.984 92.8945 111.55 77.4415 91.3245 77.4415C76.9641 77.4415 63.8173 85.4205 57.9012 97.793C55.9292 101.883 54.9179 106.681 54.9179 111.933C54.9179 115.872 55.2718 122.084 58.3057 130.164C58.8114 131.477 58.154 132.941 56.8393 133.396C55.5246 133.901 54.0583 133.194 53.6032 131.931C51.1667 125.544 49.9158 118.768 49.912 111.933C49.912 105.873 51.0749 100.368 53.3504 95.571C60.0755 81.4815 74.9921 72.341 91.3245 72.341C114.331 72.341 133.04 90.0665 133.04 111.882C133.04 120.064 126.062 126.73 117.466 126.73C108.87 126.73 101.893 120.064 101.893 111.882C101.893 106.479 97.19 102.086 91.3751 102.086C85.5601 102.086 80.8576 106.479 80.8576 111.882C80.8576 120.518 84.1949 128.598 90.3132 134.658C95.1169 139.405 99.7183 142.031 106.848 144.001C108.213 144.354 108.972 145.768 108.618 147.081C108.365 148.243 107.303 149 106.241 149Z" fill="#001120"/>
<path d="M179 99C179 147.049 140.049 186 92 186C43.9512 186 5 147.049 5 99C5 50.9512 43.9512 12 92 12C140.049 12 179 50.9512 179 99ZM9.98534 99C9.98534 144.295 46.7046 181.015 92 181.015C137.295 181.015 174.015 144.295 174.015 99C174.015 53.7046 137.295 16.9853 92 16.9853C46.7046 16.9853 9.98534 53.7046 9.98534 99Z" stroke="#001120"/>
<path d="M120.905 60.4735C120.5 60.4735 120.096 60.3725 119.742 60.1705C110.033 55.171 101.64 53.05 91.5773 53.05C81.5655 53.05 72.0593 55.4235 63.4127 60.1705C62.1992 60.827 60.6822 60.3725 59.9743 59.1605C59.659 58.5699 59.5883 57.8793 59.7774 57.2371C59.9665 56.595 60.4003 56.0526 60.9856 55.7265C70.3907 50.626 80.7059 48 91.5773 48C102.348 48 111.753 50.3735 122.068 55.676C123.332 56.3325 123.787 57.8475 123.13 59.0595C122.93 59.4805 122.615 59.8365 122.221 60.0867C121.828 60.3368 121.371 60.4709 120.905 60.4735ZM48.5467 86.986C48.0806 86.9903 47.6224 86.8656 47.2229 86.6258C46.8235 86.3859 46.4984 86.0402 46.2836 85.627C46.0689 85.2138 45.973 84.7493 46.0065 84.2849C46.0401 83.8206 46.2017 83.3747 46.4735 82.9965C51.4795 75.9265 57.8506 70.3715 65.4353 66.483C81.3127 58.302 101.64 58.2515 117.568 66.4325C125.152 70.321 131.524 75.8255 136.529 82.845C136.723 83.1164 136.862 83.4235 136.936 83.7485C137.011 84.0736 137.02 84.4101 136.964 84.7388C136.907 85.0674 136.786 85.3817 136.608 85.6634C136.429 85.9451 136.196 86.1886 135.923 86.38C134.76 87.188 133.192 86.9355 132.383 85.774C127.955 79.5139 122.073 74.4194 115.242 70.927C100.73 63.5035 82.1723 63.5035 67.7108 70.9775C60.8339 74.5125 55.0696 79.5625 50.5187 85.9255C50.1142 86.6325 49.3557 86.986 48.5467 86.986ZM80.1497 147.94C79.8181 147.944 79.4893 147.878 79.1845 147.748C78.8798 147.617 78.6057 147.425 78.3799 147.182C73.9808 142.789 71.6042 139.961 68.2164 133.85C64.7274 127.639 62.9071 120.063 62.9071 111.933C62.9071 96.9345 75.7506 84.7135 91.5268 84.7135C107.303 84.7135 120.146 96.9345 120.146 111.933C120.146 113.347 119.034 114.458 117.618 114.458C116.202 114.458 115.09 113.347 115.09 111.933C115.09 99.712 104.522 89.7635 91.5268 89.7635C78.5316 89.7635 67.9636 99.712 67.9636 111.933C67.9636 119.205 69.5816 125.922 72.6661 131.376C75.9022 137.183 78.1271 139.657 82.0206 143.596C82.9813 144.606 82.9813 146.172 82.0206 147.182C81.4644 147.687 80.807 147.94 80.1497 147.94ZM116.405 138.597C110.387 138.597 105.078 137.082 100.73 134.103C93.1954 129.002 88.6951 120.72 88.6951 111.933C88.6951 110.519 89.8076 109.408 91.2234 109.408C92.6392 109.408 93.7516 110.519 93.7516 111.933C93.7516 119.053 97.3923 125.77 103.561 129.911C107.151 132.335 111.348 133.497 116.405 133.497C117.618 133.497 119.641 133.345 121.663 132.992C123.029 132.739 124.343 133.648 124.596 135.062C124.849 136.426 123.939 137.739 122.523 137.991C119.641 138.547 117.113 138.597 116.405 138.597ZM106.241 149C106.039 149 105.786 148.95 105.584 148.899C97.544 146.677 92.2852 143.697 86.7737 138.294C83.2811 134.85 80.5116 130.744 78.6275 126.218C76.7434 121.691 75.7825 116.835 75.8011 111.933C75.8011 103.752 82.7791 97.086 91.3751 97.086C99.9711 97.086 106.949 103.752 106.949 111.933C106.949 117.336 111.652 121.73 117.466 121.73C123.281 121.73 127.984 117.336 127.984 111.933C127.984 92.8945 111.55 77.4415 91.3245 77.4415C76.9641 77.4415 63.8173 85.4205 57.9012 97.793C55.9292 101.883 54.9179 106.681 54.9179 111.933C54.9179 115.872 55.2718 122.084 58.3057 130.164C58.8114 131.477 58.154 132.941 56.8393 133.396C55.5246 133.901 54.0583 133.194 53.6032 131.931C51.1667 125.544 49.9158 118.768 49.912 111.933C49.912 105.873 51.0749 100.368 53.3504 95.571C60.0755 81.4815 74.9921 72.341 91.3245 72.341C114.331 72.341 133.04 90.0665 133.04 111.882C133.04 120.064 126.062 126.73 117.466 126.73C108.87 126.73 101.893 120.064 101.893 111.882C101.893 106.479 97.19 102.086 91.3751 102.086C85.5601 102.086 80.8576 106.479 80.8576 111.882C80.8576 120.518 84.1949 128.598 90.3132 134.658C95.1169 139.405 99.7183 142.031 106.848 144.001C108.213 144.354 108.972 145.768 108.618 147.081C108.365 148.243 107.303 149 106.241 149Z" stroke="#001120"/>
<path d="M5 5L193 193" stroke="black" stroke-width="9" stroke-linecap="round"/>
</svg>
