<svg width="648" height="633" viewBox="0 0 648 633" fill="none" xmlns="http://www.w3.org/2000/svg">
<g clip-path="url(#clip0_85_384)">
<path d="M411.147 142.175H236.638C232.661 142.179 228.848 143.761 226.036 146.573C223.224 149.385 221.642 153.198 221.638 157.175V545.025L219.638 545.635L176.828 558.745C174.799 559.363 172.607 559.152 170.734 558.156C168.861 557.161 167.46 555.462 166.838 553.435L39.4975 137.485C38.8778 135.456 39.089 133.264 40.0847 131.391C41.0804 129.517 42.7792 128.116 44.8076 127.495L110.778 107.295L302.028 48.7546L367.997 28.5546C369.001 28.2456 370.057 28.1377 371.102 28.2369C372.148 28.3361 373.164 28.6406 374.092 29.1329C375.02 29.6251 375.841 30.2956 376.51 31.1058C377.178 31.916 377.681 32.8501 377.988 33.8546L410.538 140.175L411.147 142.175Z" fill="#F2F2F2"/>
<path d="M449.228 140.174L409.998 12.0335C409.345 9.89845 408.278 7.91293 406.858 6.19041C405.438 4.46788 403.692 3.04212 401.72 1.99458C399.749 0.947035 397.59 0.298239 395.368 0.0852906C393.145 -0.127658 390.903 0.0994124 388.768 0.753503L296.018 29.1435L104.778 87.6935L12.0284 116.094C7.71977 117.417 4.11206 120.395 1.9972 124.375C-0.117664 128.356 -0.56689 133.012 0.748143 137.324L134.828 575.254C135.896 578.734 138.052 581.78 140.978 583.945C143.905 586.11 147.448 587.28 151.089 587.284C152.773 587.284 154.449 587.032 156.058 586.534L219.638 567.074L221.638 566.454V564.364L219.638 564.974L155.468 584.624C151.665 585.783 147.557 585.386 144.046 583.521C140.535 581.656 137.907 578.474 136.738 574.674L2.66855 136.734C2.08964 134.85 1.88788 132.872 2.0748 130.91C2.26173 128.949 2.83366 127.044 3.75788 125.304C4.6821 123.565 5.94045 122.024 7.46085 120.771C8.98125 119.519 10.7338 118.578 12.6183 118.004L105.368 89.6035L296.608 31.0635L389.358 2.66352C390.788 2.22732 392.274 2.00491 393.768 2.00352C396.975 2.01072 400.096 3.04468 402.673 4.95394C405.25 6.86321 407.148 9.54746 408.088 12.6135L447.138 140.174L447.758 142.174H449.838L449.228 140.174Z" fill="#3F3D56"/>
<path d="M122.683 127.821C120.756 127.82 118.879 127.201 117.33 126.055C115.78 124.909 114.638 123.297 114.072 121.455L101.191 79.383C100.845 78.2529 100.725 77.0656 100.838 75.8891C100.951 74.7126 101.294 73.5698 101.849 72.526C102.403 71.4822 103.158 70.5578 104.07 69.8058C104.981 69.0537 106.032 68.4886 107.163 68.1427L283.102 14.279C285.384 13.5825 287.849 13.82 289.957 14.9394C292.064 16.0588 293.642 17.9686 294.342 20.2497L307.223 62.3219C307.919 64.6043 307.681 67.0696 306.562 69.1769C305.442 71.2842 303.533 72.8615 301.252 73.5627L125.312 127.426C124.46 127.688 123.574 127.821 122.683 127.821Z" fill="#FF0000"/>
<path d="M190.156 44.9551C201.202 44.9551 210.156 36.0008 210.156 24.9551C210.156 13.9094 201.202 4.95508 190.156 4.95508C179.111 4.95508 170.156 13.9094 170.156 24.9551C170.156 36.0008 179.111 44.9551 190.156 44.9551Z" fill="#FF0000"/>
<path d="M190.157 37.6183C197.151 37.6183 202.821 31.9482 202.821 24.9537C202.821 17.9592 197.151 12.2891 190.157 12.2891C183.162 12.2891 177.492 17.9592 177.492 24.9537C177.492 31.9482 183.162 37.6183 190.157 37.6183Z" fill="white"/>
<path d="M602.633 582.174H264.633C262.379 582.171 260.219 581.275 258.625 579.681C257.032 578.088 256.135 575.927 256.133 573.674V168.674C256.135 166.42 257.032 164.26 258.625 162.666C260.219 161.073 262.379 160.176 264.633 160.174H602.633C604.886 160.176 607.047 161.073 608.64 162.666C610.234 164.26 611.13 166.42 611.133 168.674V573.674C611.13 575.927 610.234 578.088 608.64 579.681C607.047 581.275 604.886 582.171 602.633 582.174Z" fill="#E6E6E6"/>
<path d="M447.133 140.174H236.633C232.126 140.18 227.806 141.973 224.619 145.16C221.432 148.347 219.639 152.667 219.633 157.174V564.974L221.633 564.364V157.174C221.638 153.197 223.22 149.385 226.032 146.573C228.844 143.761 232.656 142.179 236.633 142.174H447.753L447.133 140.174ZM630.633 140.174H236.633C232.126 140.18 227.806 141.973 224.619 145.16C221.432 148.347 219.639 152.667 219.633 157.174V615.174C219.639 619.681 221.432 624.001 224.619 627.188C227.806 630.374 232.126 632.167 236.633 632.174H630.633C635.14 632.167 639.46 630.374 642.647 627.188C645.833 624.001 647.626 619.681 647.633 615.174V157.174C647.626 152.667 645.833 148.347 642.647 145.16C639.46 141.973 635.14 140.18 630.633 140.174ZM645.633 615.174C645.628 619.151 644.046 622.963 641.234 625.775C638.422 628.587 634.61 630.169 630.633 630.174H236.633C232.656 630.169 228.844 628.587 226.032 625.775C223.22 622.963 221.638 619.151 221.633 615.174V157.174C221.638 153.197 223.22 149.385 226.032 146.573C228.844 143.761 232.656 142.179 236.633 142.174H630.633C634.61 142.179 638.422 143.761 641.234 146.573C644.046 149.385 645.628 153.197 645.633 157.174V615.174Z" fill="#3F3D56"/>
<path d="M525.633 184.174H341.633C339.247 184.171 336.959 183.222 335.272 181.535C333.585 179.848 332.635 177.56 332.633 175.174V131.174C332.636 128.788 333.585 126.5 335.272 124.813C336.959 123.126 339.247 122.177 341.633 122.174H525.633C528.019 122.177 530.307 123.126 531.994 124.813C533.681 126.5 534.63 128.788 534.633 131.174V175.174C534.63 177.56 533.681 179.848 531.994 181.535C530.307 183.222 528.019 184.171 525.633 184.174Z" fill="#FF0000"/>
<path d="M433.633 125.174C444.679 125.174 453.633 116.22 453.633 105.174C453.633 94.1281 444.679 85.1738 433.633 85.1738C422.587 85.1738 413.633 94.1281 413.633 105.174C413.633 116.22 422.587 125.174 433.633 125.174Z" fill="#FF0000"/>
<path d="M433.635 117.356C440.363 117.356 445.817 111.902 445.817 105.174C445.817 98.4462 440.363 92.9922 433.635 92.9922C426.907 92.9922 421.453 98.4462 421.453 105.174C421.453 111.902 426.907 117.356 433.635 117.356Z" fill="white"/>
<path d="M523 312C523 361.153 483.153 401 434 401C384.847 401 345 361.153 345 312C345 262.847 384.847 223 434 223C483.153 223 523 262.847 523 312ZM359.835 312C359.835 352.96 393.04 386.165 434 386.165C474.96 386.165 508.165 352.96 508.165 312C508.165 271.04 474.96 237.835 434 237.835C393.04 237.835 359.835 271.04 359.835 312Z" fill="#FF0000"/>
<rect x="424" y="249" width="21" height="80" rx="5" fill="#FF0000"/>
<circle cx="434.5" cy="353.5" r="10.5" fill="#FF0000"/>
<path d="M312.276 478V451.818H322.605C324.591 451.818 326.283 452.197 327.68 452.956C329.078 453.706 330.143 454.75 330.876 456.088C331.618 457.418 331.989 458.952 331.989 460.69C331.989 462.429 331.614 463.963 330.864 465.293C330.114 466.622 329.027 467.658 327.604 468.399C326.189 469.141 324.476 469.511 322.464 469.511H315.881V465.075H321.57C322.635 465.075 323.513 464.892 324.203 464.526C324.902 464.151 325.422 463.635 325.763 462.979C326.112 462.314 326.287 461.551 326.287 460.69C326.287 459.821 326.112 459.062 325.763 458.415C325.422 457.759 324.902 457.251 324.203 456.893C323.504 456.527 322.618 456.344 321.544 456.344H317.811V478H312.276ZM340.554 478.371C339.301 478.371 338.185 478.153 337.205 477.719C336.224 477.276 335.449 476.624 334.878 475.763C334.315 474.893 334.034 473.811 334.034 472.516C334.034 471.425 334.234 470.509 334.635 469.767C335.036 469.026 335.581 468.429 336.271 467.977C336.962 467.526 337.746 467.185 338.624 466.955C339.51 466.724 340.439 466.562 341.411 466.469C342.553 466.349 343.473 466.239 344.172 466.136C344.871 466.026 345.378 465.864 345.693 465.651C346.009 465.437 346.166 465.122 346.166 464.705V464.628C346.166 463.818 345.911 463.192 345.399 462.749C344.896 462.305 344.18 462.084 343.251 462.084C342.271 462.084 341.491 462.301 340.912 462.736C340.332 463.162 339.949 463.699 339.761 464.347L334.724 463.938C334.98 462.744 335.483 461.713 336.233 460.844C336.983 459.966 337.95 459.293 339.135 458.824C340.328 458.347 341.709 458.108 343.277 458.108C344.368 458.108 345.412 458.236 346.409 458.491C347.415 458.747 348.305 459.143 349.081 459.68C349.865 460.217 350.483 460.908 350.935 461.751C351.386 462.587 351.612 463.588 351.612 464.756V478H346.447V475.277H346.294C345.979 475.891 345.557 476.432 345.028 476.901C344.5 477.361 343.865 477.723 343.124 477.987C342.382 478.243 341.526 478.371 340.554 478.371ZM342.114 474.612C342.915 474.612 343.622 474.455 344.236 474.139C344.849 473.815 345.331 473.381 345.68 472.835C346.03 472.29 346.205 471.672 346.205 470.982V468.898C346.034 469.009 345.8 469.111 345.501 469.205C345.212 469.29 344.884 469.371 344.517 469.447C344.151 469.516 343.784 469.58 343.418 469.639C343.051 469.69 342.719 469.737 342.42 469.78C341.781 469.874 341.223 470.023 340.746 470.227C340.268 470.432 339.898 470.709 339.634 471.058C339.369 471.399 339.237 471.825 339.237 472.337C339.237 473.078 339.506 473.645 340.043 474.037C340.588 474.42 341.278 474.612 342.114 474.612ZM358.496 485.364C357.806 485.364 357.158 485.308 356.553 485.197C355.957 485.095 355.462 484.963 355.07 484.801L356.298 480.736C356.937 480.932 357.512 481.038 358.023 481.055C358.543 481.072 358.991 480.953 359.366 480.697C359.749 480.442 360.06 480.007 360.299 479.393L360.619 478.562L353.575 458.364H359.302L363.367 472.784H363.572L367.675 458.364H373.441L365.809 480.122C365.442 481.179 364.944 482.099 364.313 482.884C363.691 483.676 362.903 484.286 361.948 484.712C360.994 485.146 359.843 485.364 358.496 485.364ZM376.228 478V458.364H381.418V461.828H381.648C382.058 460.678 382.739 459.77 383.694 459.105C384.648 458.44 385.79 458.108 387.12 458.108C388.467 458.108 389.613 458.445 390.559 459.118C391.505 459.783 392.136 460.686 392.451 461.828H392.656C393.056 460.703 393.781 459.804 394.829 459.131C395.886 458.449 397.134 458.108 398.575 458.108C400.407 458.108 401.894 458.692 403.036 459.859C404.187 461.018 404.762 462.663 404.762 464.794V478H399.329V465.868C399.329 464.777 399.039 463.959 398.46 463.413C397.88 462.868 397.156 462.595 396.286 462.595C395.298 462.595 394.526 462.911 393.972 463.541C393.418 464.163 393.141 464.986 393.141 466.009V478H387.862V465.753C387.862 464.79 387.585 464.023 387.031 463.452C386.485 462.881 385.765 462.595 384.87 462.595C384.265 462.595 383.719 462.749 383.234 463.055C382.756 463.354 382.377 463.776 382.096 464.321C381.815 464.858 381.674 465.489 381.674 466.213V478H376.228ZM418.013 478.384C415.993 478.384 414.254 477.974 412.797 477.156C411.348 476.33 410.232 475.162 409.447 473.653C408.663 472.136 408.271 470.342 408.271 468.271C408.271 466.251 408.663 464.479 409.447 462.953C410.232 461.428 411.335 460.239 412.759 459.386C414.19 458.534 415.869 458.108 417.795 458.108C419.091 458.108 420.297 458.317 421.413 458.734C422.538 459.143 423.518 459.761 424.354 460.588C425.197 461.415 425.854 462.455 426.322 463.707C426.791 464.952 427.026 466.409 427.026 468.08V469.575H410.445V466.2H421.899C421.899 465.416 421.729 464.722 421.388 464.116C421.047 463.511 420.574 463.038 419.969 462.697C419.372 462.348 418.678 462.173 417.885 462.173C417.058 462.173 416.325 462.365 415.686 462.749C415.055 463.124 414.561 463.631 414.203 464.27C413.845 464.901 413.662 465.604 413.653 466.379V469.588C413.653 470.56 413.832 471.399 414.19 472.107C414.557 472.814 415.072 473.359 415.737 473.743C416.402 474.126 417.19 474.318 418.102 474.318C418.707 474.318 419.261 474.233 419.764 474.062C420.267 473.892 420.697 473.636 421.055 473.295C421.413 472.955 421.686 472.537 421.874 472.043L426.911 472.375C426.655 473.585 426.131 474.642 425.338 475.545C424.554 476.44 423.54 477.139 422.295 477.642C421.06 478.136 419.632 478.384 418.013 478.384ZM436.026 466.648V478H430.58V458.364H435.77V461.828H436C436.435 460.686 437.163 459.783 438.186 459.118C439.209 458.445 440.449 458.108 441.906 458.108C443.27 458.108 444.459 458.406 445.473 459.003C446.487 459.599 447.276 460.452 447.838 461.56C448.401 462.659 448.682 463.972 448.682 465.497V478H443.236V466.469C443.244 465.267 442.938 464.33 442.315 463.656C441.693 462.974 440.837 462.634 439.746 462.634C439.013 462.634 438.365 462.791 437.803 463.107C437.249 463.422 436.814 463.882 436.499 464.487C436.192 465.084 436.034 465.804 436.026 466.648ZM463.419 458.364V462.455H451.593V458.364H463.419ZM454.278 453.659H459.724V471.966C459.724 472.469 459.801 472.861 459.954 473.142C460.108 473.415 460.321 473.607 460.593 473.717C460.875 473.828 461.199 473.884 461.565 473.884C461.821 473.884 462.076 473.862 462.332 473.82C462.588 473.768 462.784 473.73 462.92 473.705L463.777 477.757C463.504 477.842 463.12 477.94 462.626 478.051C462.132 478.17 461.531 478.243 460.824 478.268C459.511 478.32 458.36 478.145 457.372 477.744C456.392 477.344 455.629 476.722 455.083 475.878C454.538 475.034 454.27 473.969 454.278 472.682V453.659ZM475.401 478V451.818H492.736V456.382H480.936V462.621H491.585V467.185H480.936V478H475.401ZM501.71 478.371C500.457 478.371 499.341 478.153 498.361 477.719C497.381 477.276 496.605 476.624 496.034 475.763C495.472 474.893 495.19 473.811 495.19 472.516C495.19 471.425 495.391 470.509 495.791 469.767C496.192 469.026 496.737 468.429 497.428 467.977C498.118 467.526 498.902 467.185 499.78 466.955C500.666 466.724 501.595 466.562 502.567 466.469C503.709 466.349 504.629 466.239 505.328 466.136C506.027 466.026 506.534 465.864 506.849 465.651C507.165 465.437 507.322 465.122 507.322 464.705V464.628C507.322 463.818 507.067 463.192 506.555 462.749C506.053 462.305 505.337 462.084 504.408 462.084C503.428 462.084 502.648 462.301 502.068 462.736C501.489 463.162 501.105 463.699 500.918 464.347L495.881 463.938C496.136 462.744 496.639 461.713 497.389 460.844C498.139 459.966 499.107 459.293 500.291 458.824C501.484 458.347 502.865 458.108 504.433 458.108C505.524 458.108 506.568 458.236 507.565 458.491C508.571 458.747 509.462 459.143 510.237 459.68C511.021 460.217 511.639 460.908 512.091 461.751C512.543 462.587 512.768 463.588 512.768 464.756V478H507.604V475.277H507.45C507.135 475.891 506.713 476.432 506.185 476.901C505.656 477.361 505.021 477.723 504.28 477.987C503.538 478.243 502.682 478.371 501.71 478.371ZM503.27 474.612C504.071 474.612 504.778 474.455 505.392 474.139C506.006 473.815 506.487 473.381 506.837 472.835C507.186 472.29 507.361 471.672 507.361 470.982V468.898C507.19 469.009 506.956 469.111 506.658 469.205C506.368 469.29 506.04 469.371 505.673 469.447C505.307 469.516 504.94 469.58 504.574 469.639C504.207 469.69 503.875 469.737 503.577 469.78C502.938 469.874 502.379 470.023 501.902 470.227C501.425 470.432 501.054 470.709 500.79 471.058C500.526 471.399 500.393 471.825 500.393 472.337C500.393 473.078 500.662 473.645 501.199 474.037C501.744 474.42 502.435 474.612 503.27 474.612ZM516.994 478V458.364H522.44V478H516.994ZM519.729 455.832C518.92 455.832 518.225 455.564 517.646 455.027C517.075 454.482 516.789 453.83 516.789 453.071C516.789 452.321 517.075 451.678 517.646 451.141C518.225 450.595 518.92 450.322 519.729 450.322C520.539 450.322 521.229 450.595 521.8 451.141C522.38 451.678 522.67 452.321 522.67 453.071C522.67 453.83 522.38 454.482 521.8 455.027C521.229 455.564 520.539 455.832 519.729 455.832ZM532.248 451.818V478H526.802V451.818H532.248ZM545.56 478.384C543.54 478.384 541.801 477.974 540.344 477.156C538.895 476.33 537.778 475.162 536.994 473.653C536.21 472.136 535.818 470.342 535.818 468.271C535.818 466.251 536.21 464.479 536.994 462.953C537.778 461.428 538.882 460.239 540.305 459.386C541.737 458.534 543.416 458.108 545.342 458.108C546.638 458.108 547.844 458.317 548.96 458.734C550.085 459.143 551.065 459.761 551.901 460.588C552.744 461.415 553.401 462.455 553.869 463.707C554.338 464.952 554.572 466.409 554.572 468.08V469.575H537.991V466.2H549.446C549.446 465.416 549.276 464.722 548.935 464.116C548.594 463.511 548.121 463.038 547.516 462.697C546.919 462.348 546.224 462.173 545.432 462.173C544.605 462.173 543.872 462.365 543.233 462.749C542.602 463.124 542.108 463.631 541.75 464.27C541.392 464.901 541.209 465.604 541.2 466.379V469.588C541.2 470.56 541.379 471.399 541.737 472.107C542.104 472.814 542.619 473.359 543.284 473.743C543.949 474.126 544.737 474.318 545.649 474.318C546.254 474.318 546.808 474.233 547.311 474.062C547.814 473.892 548.244 473.636 548.602 473.295C548.96 472.955 549.233 472.537 549.42 472.043L554.457 472.375C554.202 473.585 553.678 474.642 552.885 475.545C552.101 476.44 551.087 477.139 549.842 477.642C548.607 478.136 547.179 478.384 545.56 478.384ZM565.362 478.32C563.871 478.32 562.52 477.936 561.31 477.169C560.108 476.393 559.153 475.256 558.446 473.756C557.747 472.247 557.398 470.398 557.398 468.207C557.398 465.957 557.76 464.087 558.484 462.595C559.209 461.095 560.172 459.974 561.374 459.233C562.584 458.483 563.909 458.108 565.349 458.108C566.449 458.108 567.365 458.295 568.098 458.67C568.839 459.037 569.436 459.497 569.888 460.051C570.348 460.597 570.697 461.134 570.936 461.662H571.102V451.818H576.536V478H571.166V474.855H570.936C570.68 475.401 570.318 475.942 569.849 476.479C569.389 477.007 568.788 477.446 568.047 477.795C567.314 478.145 566.419 478.32 565.362 478.32ZM567.088 473.986C567.966 473.986 568.707 473.747 569.312 473.27C569.926 472.784 570.395 472.107 570.719 471.237C571.051 470.368 571.217 469.349 571.217 468.182C571.217 467.014 571.055 466 570.732 465.139C570.408 464.278 569.939 463.614 569.325 463.145C568.712 462.676 567.966 462.442 567.088 462.442C566.193 462.442 565.439 462.685 564.825 463.17C564.212 463.656 563.747 464.33 563.432 465.19C563.116 466.051 562.959 467.048 562.959 468.182C562.959 469.324 563.116 470.334 563.432 471.212C563.756 472.081 564.22 472.763 564.825 473.257C565.439 473.743 566.193 473.986 567.088 473.986Z" fill="#FF0000"/>
</g>
<defs>
<clipPath id="clip0_85_384">
<rect width="647.636" height="632.174" fill="white"/>
</clipPath>
</defs>
</svg>
