<svg width="350" height="468" viewBox="0 0 350 468" fill="none" xmlns="http://www.w3.org/2000/svg">
<path d="M248.571 155.197L184.098 121.672C184.098 121.672 162.447 97.8283 148.85 87.0587C135.253 76.2891 131.067 84.2008 131.067 84.2008L125.352 93.7272L139.165 112.939L176.477 144.535L243.146 170.648C244.189 172.356 245.695 173.732 247.489 174.618C249.283 175.503 251.291 175.862 253.28 175.651C255.27 175.441 257.159 174.671 258.728 173.429C260.297 172.188 261.481 170.527 262.144 168.64C262.807 166.752 262.92 164.715 262.471 162.766C262.022 160.816 261.029 159.034 259.608 157.626C258.187 156.219 256.395 155.243 254.441 154.813C252.487 154.383 250.452 154.516 248.571 155.197Z" fill="#FFB8B8"/>
<path d="M80.873 126.202L77.0559 102.85L66.2779 100.155C66.2779 100.155 57.7241 97.5205 55.7248 114.75C53.7254 131.98 55.2755 164.149 55.2755 164.149L33.3927 233.445C31.5724 234.291 30.0302 235.638 28.9455 237.327C27.8608 239.016 27.2783 240.979 27.2658 242.986C27.2534 244.994 27.8115 246.964 28.8751 248.666C29.9388 250.369 31.4642 251.734 33.2738 252.603C35.0834 253.472 37.1027 253.81 39.0965 253.576C41.0904 253.342 42.9767 252.546 44.5359 251.282C46.0951 250.017 47.263 248.336 47.9035 246.433C48.544 244.53 48.6309 242.485 48.154 240.535L76.8316 174.927L80.873 126.202Z" fill="#FFB8B8"/>
<path d="M170.019 453.915L184.122 453.914L190.832 399.515L170.016 399.516L170.019 453.915Z" fill="#FFB8B8"/>
<path d="M166.422 449.31L194.198 449.309C198.892 449.309 203.394 451.174 206.714 454.494C210.033 457.813 211.898 462.315 211.899 467.009V467.584L166.423 467.586L166.422 449.31Z" fill="#2F2E41"/>
<path d="M16.1895 453.915L30.2935 453.914L37.0025 399.515L16.1875 399.516L16.1895 453.915Z" fill="#FFB8B8"/>
<path d="M12.5938 449.31L40.37 449.309C45.0643 449.309 49.5663 451.174 52.8857 454.494C56.2051 457.813 58.0701 462.315 58.0704 467.009V467.584L12.5946 467.586L12.5938 449.31Z" fill="#2F2E41"/>
<path d="M85.8172 79.5539L62.4245 99.5232L81.6224 160.276L85.9541 173.842C85.9541 173.842 59.504 198.229 43.1382 266.354C26.7725 334.479 0 425.001 0 425.001L56.5121 441.178L102.488 287.072L156.568 407.973L162.811 443.732L210.937 429.542L199.585 339.859L142.824 184.618L148.72 143.467C148.72 143.467 157.574 122.926 142.192 101.18L137.368 80.7461L120.084 76.489L85.8172 79.5539Z" fill="#2F2E41"/>
<path d="M124.684 68.6977H61.4382C60.1373 68.6963 58.89 68.1788 57.9701 67.2589C57.0502 66.339 56.5327 65.0917 56.5312 63.7907V36.5297C56.5313 26.8414 60.3799 17.55 67.2306 10.6993C74.0812 3.84866 83.3727 0 93.061 0C102.749 0 112.041 3.84866 118.891 10.6993C125.742 17.55 129.591 26.8414 129.591 36.5297V63.7907C129.589 65.0917 129.072 66.339 128.152 67.2589C127.232 68.1788 125.985 68.6963 124.684 68.6977Z" fill="#2F2E41"/>
<path d="M124.066 54.1271C131.161 41.1483 126.391 24.8753 113.412 17.7805C100.433 10.6856 84.16 15.4555 77.0652 28.4343C69.9703 41.4131 74.7402 57.6861 87.719 64.781C100.698 71.8758 116.971 67.1059 124.066 54.1271Z" fill="#FFB8B8"/>
<path d="M138.23 39.2558H99.5568L99.1601 33.7035L97.1773 39.2558H91.2225L90.4366 28.2513L86.5067 39.2558H74.9844V38.7106C74.993 31.0494 78.0401 23.7045 83.4574 18.2872C88.8747 12.8699 96.2196 9.82263 103.881 9.81396H109.333C116.994 9.82261 124.339 12.8698 129.757 18.2871C135.174 23.7044 138.221 31.0494 138.23 38.7106V39.2558Z" fill="#2F2E41"/>
<path d="M333.432 319.146L85.2514 406.892C79.1151 409.054 72.3719 408.693 66.5012 405.89C60.6305 403.086 56.1117 398.068 53.9361 391.937L11.3021 271.351C9.14033 265.215 9.50091 258.472 12.3047 252.601C15.1085 246.731 20.1265 242.212 26.2578 240.036L274.439 152.289C280.575 150.128 287.318 150.488 293.189 153.292C299.06 156.096 303.579 161.114 305.754 167.245L348.388 287.83C350.55 293.967 350.189 300.71 347.386 306.58C344.582 312.451 339.564 316.97 333.432 319.146Z" fill="white"/>
<path d="M348.384 287.831L348.61 288.469C350.681 294.329 350.339 300.771 347.659 306.38C344.98 311.988 340.182 316.302 334.322 318.372L84.9002 406.558C79.0413 408.629 72.5998 408.288 66.9924 405.609C61.385 402.931 57.0709 398.136 54.999 392.277L54.7734 391.639L348.384 287.831Z" fill="#F2F2F2"/>
<path d="M275.911 298.745C271.885 300.168 268.259 300.103 265.134 298.551C258.072 295.042 254.758 284.636 252.095 276.275C251.32 273.843 250.588 271.546 249.843 269.668L249.832 269.639C248.536 265.914 248.761 261.828 250.46 258.268C252.159 254.708 255.194 251.963 258.906 250.628L292.288 238.825C296.309 237.403 299.931 237.468 303.053 239.018C310.114 242.523 313.431 252.924 316.096 261.282C316.874 263.719 317.608 266.021 318.356 267.902C319.659 271.631 319.438 275.724 317.739 279.29C316.041 282.856 313.002 285.608 309.286 286.945L275.911 298.745ZM251.231 269.134C251.993 271.057 252.731 273.372 253.511 275.824C256.089 283.918 259.298 293.99 265.796 297.219C268.585 298.605 271.732 298.645 275.415 297.343L308.788 285.544C312.131 284.342 314.864 281.87 316.395 278.664C317.926 275.458 318.13 271.778 316.963 268.423C316.206 266.523 315.465 264.196 314.679 261.734C312.099 253.643 308.889 243.574 302.392 240.35C299.606 238.967 296.462 238.927 292.784 240.227L259.404 252.029C256.064 253.231 253.334 255.7 251.804 258.902C250.274 262.105 250.068 265.781 251.231 269.134Z" fill="#3F3D56"/>
<path d="M71.5641 358.48C69.4801 359.305 67.2107 359.547 64.9996 359.18C62.7885 358.812 60.7191 357.85 59.0135 356.396C57.017 354.651 55.5036 352.421 54.619 349.922C53.7344 347.422 53.5084 344.737 53.9628 342.125C54.3849 339.877 55.4211 337.79 56.9564 336.095C58.4918 334.4 60.4665 333.164 62.6616 332.522L107.141 316.796C109.251 315.921 111.563 315.646 113.82 316.001C116.077 316.357 118.193 317.328 119.933 318.809C121.928 320.555 123.44 322.784 124.324 325.284C125.207 327.783 125.432 330.468 124.977 333.08C124.099 337.67 121 341.051 116.276 342.67L71.7967 358.396C71.7191 358.424 71.6416 358.452 71.5641 358.48ZM62.9383 334C61.0404 334.586 59.338 335.678 58.014 337.158C56.6901 338.639 55.7946 340.452 55.4237 342.404C55.0143 344.757 55.2179 347.176 56.0149 349.428C56.8119 351.68 58.1754 353.688 59.974 355.26C61.5158 356.567 63.3893 357.42 65.3868 357.727C67.3843 358.034 69.4277 357.781 71.2904 356.997L115.791 341.264C117.734 340.703 119.485 339.616 120.848 338.122C122.212 336.628 123.135 334.787 123.516 332.8C123.927 330.447 123.724 328.029 122.928 325.777C122.132 323.525 120.769 321.516 118.972 319.944C117.427 318.639 115.553 317.785 113.555 317.476C111.557 317.167 109.512 317.416 107.646 318.195L63.1426 333.929C63.0743 333.952 63.0058 333.976 62.9383 334Z" fill="#FF0000"/>
<path d="M276.213 263.266L262.192 268.223C261.262 268.552 260.24 268.498 259.35 268.073C258.46 267.648 257.776 266.887 257.447 265.957C257.118 265.028 257.172 264.005 257.597 263.116C258.022 262.226 258.783 261.541 259.713 261.213L273.735 256.255C274.664 255.926 275.686 255.98 276.576 256.405C277.466 256.83 278.151 257.591 278.479 258.521C278.808 259.451 278.754 260.473 278.329 261.363C277.904 262.253 277.143 262.937 276.213 263.266Z" fill="#FF0400"/>
<path d="M280.174 274.483L266.153 279.441C265.223 279.769 264.201 279.715 263.311 279.29C262.421 278.865 261.737 278.104 261.408 277.175C261.079 276.245 261.133 275.223 261.558 274.333C261.983 273.443 262.744 272.759 263.674 272.43L277.695 267.472C278.625 267.144 279.647 267.198 280.537 267.623C281.427 268.048 282.112 268.809 282.44 269.738C282.769 270.668 282.715 271.69 282.29 272.58C281.865 273.47 281.104 274.154 280.174 274.483Z" fill="#FF0400"/>
<path d="M284.143 285.7L270.121 290.658C269.661 290.82 269.173 290.891 268.686 290.865C268.198 290.839 267.72 290.718 267.28 290.507C266.839 290.297 266.444 290.002 266.118 289.639C265.791 289.276 265.539 288.852 265.377 288.392C265.214 287.931 265.143 287.443 265.169 286.956C265.195 286.468 265.317 285.991 265.527 285.55C265.737 285.109 266.033 284.715 266.396 284.388C266.759 284.061 267.182 283.81 267.643 283.647L281.664 278.689C282.125 278.527 282.612 278.456 283.1 278.482C283.588 278.508 284.065 278.629 284.506 278.84C284.947 279.05 285.341 279.345 285.668 279.708C285.994 280.071 286.246 280.495 286.409 280.955C286.572 281.416 286.642 281.904 286.616 282.391C286.591 282.879 286.469 283.357 286.259 283.797C286.048 284.238 285.753 284.633 285.39 284.959C285.027 285.286 284.603 285.537 284.143 285.7Z" fill="#FF0400"/>
<path d="M300.745 254.59L286.723 259.548C286.263 259.71 285.775 259.781 285.287 259.755C284.8 259.729 284.322 259.608 283.881 259.397C283.441 259.187 283.046 258.892 282.719 258.529C282.393 258.166 282.141 257.742 281.978 257.282C281.816 256.821 281.745 256.333 281.771 255.846C281.797 255.358 281.918 254.88 282.129 254.44C282.339 253.999 282.634 253.604 282.997 253.278C283.36 252.951 283.784 252.7 284.244 252.537L298.266 247.579C299.195 247.251 300.218 247.305 301.107 247.73C301.997 248.155 302.682 248.916 303.011 249.845C303.339 250.775 303.285 251.797 302.86 252.687C302.435 253.577 301.674 254.261 300.745 254.59Z" fill="#FF0400"/>
<path d="M304.713 265.807L290.692 270.765C290.231 270.928 289.744 270.998 289.256 270.972C288.768 270.946 288.291 270.825 287.85 270.614C287.41 270.404 287.015 270.109 286.688 269.746C286.362 269.383 286.11 268.959 285.947 268.499C285.784 268.038 285.714 267.551 285.74 267.063C285.765 266.575 285.887 266.098 286.097 265.657C286.308 265.217 286.603 264.822 286.966 264.495C287.329 264.169 287.753 263.917 288.213 263.754L302.235 258.797C302.695 258.634 303.183 258.563 303.67 258.589C304.158 258.615 304.636 258.737 305.076 258.947C305.517 259.157 305.912 259.453 306.238 259.816C306.565 260.179 306.817 260.602 306.979 261.063C307.142 261.523 307.213 262.011 307.187 262.498C307.161 262.986 307.039 263.464 306.829 263.904C306.619 264.345 306.323 264.74 305.96 265.066C305.597 265.393 305.174 265.645 304.713 265.807Z" fill="#FF0400"/>
<path d="M308.682 277.025L294.66 281.982C293.731 282.311 292.709 282.257 291.819 281.832C290.929 281.407 290.244 280.646 289.916 279.716C289.587 278.786 289.641 277.764 290.066 276.874C290.491 275.985 291.252 275.3 292.182 274.971L306.203 270.014C306.664 269.851 307.152 269.781 307.639 269.806C308.127 269.832 308.604 269.954 309.045 270.164C309.486 270.375 309.88 270.67 310.207 271.033C310.533 271.396 310.785 271.82 310.948 272.28C311.111 272.74 311.181 273.228 311.156 273.716C311.13 274.203 311.008 274.681 310.798 275.122C310.587 275.562 310.292 275.957 309.929 276.284C309.566 276.61 309.142 276.862 308.682 277.025Z" fill="#FF0400"/>
<path d="M315.033 193.494L21.4219 297.304L21.9176 298.706L315.529 194.897L315.033 193.494Z" fill="#3F3D56"/>
<path d="M333.432 319.146L85.2514 406.892C79.1151 409.054 72.3719 408.693 66.5012 405.89C60.6305 403.086 56.1117 398.068 53.9361 391.937L11.3021 271.351C9.14033 265.215 9.50091 258.472 12.3047 252.601C15.1085 246.731 20.1265 242.212 26.2578 240.036L274.439 152.289C280.575 150.128 287.318 150.488 293.189 153.292C299.06 156.096 303.579 161.114 305.754 167.245L348.388 287.83C350.55 293.967 350.189 300.71 347.386 306.58C344.582 312.451 339.564 316.97 333.432 319.146ZM26.7536 241.438C20.9938 243.482 16.28 247.727 13.6461 253.242C11.0123 258.757 10.6735 265.091 12.7042 270.856L55.3382 391.441C57.382 397.201 61.627 401.914 67.1419 404.548C72.6568 407.182 78.9913 407.521 84.7556 405.49L332.937 317.743C338.696 315.7 343.41 311.455 346.044 305.94C348.678 300.425 349.017 294.09 346.986 288.326L304.352 167.741C302.308 161.981 298.063 157.267 292.548 154.633C287.033 152 280.699 151.661 274.935 153.691L26.7536 241.438Z" fill="#3F3D56"/>
<path d="M52.6019 272.668C60.8374 269.993 65.3444 261.147 62.6685 252.912C59.9926 244.676 51.1472 240.169 42.9117 242.845C34.6762 245.521 30.1692 254.366 32.8451 262.602C35.521 270.837 44.3664 275.344 52.6019 272.668Z" fill="#FF0400"/>
<path d="M50.7314 266.896C51.4875 266.651 51.9013 265.838 51.6556 265.082C51.41 264.326 50.5978 263.912 49.8416 264.158C49.0855 264.404 48.6717 265.216 48.9174 265.972C49.163 266.728 49.9752 267.142 50.7314 266.896Z" fill="white"/>
<path d="M44.7879 248.617C44.9336 249.493 45.2158 249.595 46.3877 253.197C47.5596 256.8 49.8767 261.387 49.0317 261.662C48.1866 261.937 44.6383 252.068 41.417 252.14C37.6297 252.223 44.316 245.779 44.7879 248.617Z" fill="white"/>
<path d="M131.206 232.67C131.536 233.575 131.604 234.491 131.41 235.418C131.217 236.345 130.76 237.21 130.04 238.015C129.32 238.82 128.358 239.49 127.153 240.025L127.868 244.125C128.14 245.702 127.685 246.706 126.503 247.136C125.854 247.372 125.182 247.4 124.489 247.218C123.806 247.032 123.156 246.605 122.539 245.937C121.922 245.27 121.405 244.36 120.986 243.21C120.199 241.048 119.878 239.091 120.024 237.337C120.177 235.569 120.703 234.099 121.603 232.927C122.51 231.741 123.672 230.89 125.088 230.374C126.089 230.01 127 229.877 127.82 229.977C128.651 230.072 129.352 230.36 129.925 230.839C130.504 231.304 130.931 231.914 131.206 232.67ZM126.842 238.275C128.924 237.203 129.603 235.672 128.878 233.68C128.623 232.977 128.181 232.493 127.553 232.227C126.933 231.946 126.138 231.982 125.169 232.335C124.072 232.734 123.239 233.429 122.671 234.42C122.114 235.407 121.836 236.599 121.838 237.997C121.848 239.381 122.139 240.861 122.713 242.437C122.953 243.097 123.23 243.66 123.544 244.125C123.868 244.585 124.184 244.923 124.491 245.137C124.805 245.336 125.058 245.401 125.249 245.331C125.516 245.234 125.584 244.793 125.455 244.008L124.883 240.797C124.445 240.884 124.254 240.923 124.311 240.914C123.972 240.978 123.73 240.957 123.584 240.854C123.433 240.74 123.318 240.571 123.236 240.347C123.151 240.113 123.147 239.903 123.225 239.718C123.313 239.529 123.474 239.392 123.708 239.307C123.815 239.268 123.896 239.244 123.953 239.236C124.225 239.185 124.431 239.14 124.574 239.1C124.41 238.219 124.202 237.035 123.95 235.547C123.882 235.161 123.932 234.853 124.102 234.623C124.278 234.378 124.52 234.199 124.829 234.087C125.181 233.959 125.456 233.937 125.656 234.021C125.862 234.091 126.017 234.269 126.122 234.557C126.184 234.727 126.224 234.869 126.241 234.984L126.842 238.275Z" fill="#FF0400"/>
<path d="M135.783 241.877C135.122 242.117 134.508 242.07 133.94 241.734C133.371 241.398 132.945 240.841 132.662 240.064C132.352 239.212 132.257 238.336 132.375 237.437C132.49 236.526 132.789 235.724 133.272 235.03C133.762 234.321 134.374 233.833 135.109 233.565C135.344 233.48 135.515 233.472 135.625 233.54C135.741 233.595 135.868 233.729 136.007 233.944C136.215 233.82 136.442 233.713 136.687 233.624C137.208 233.434 137.537 233.526 137.673 233.898C137.754 234.122 137.868 234.684 138.015 235.583C138.215 236.897 138.403 237.794 138.577 238.273C138.636 238.433 138.719 238.547 138.829 238.616C138.949 238.68 139.073 238.69 139.201 238.643C139.403 238.569 139.601 238.352 139.796 237.992C139.987 237.621 140.22 237.054 140.497 236.29C140.571 236.094 140.687 235.967 140.847 235.909C140.985 235.859 141.115 235.884 141.236 235.985C141.368 236.081 141.474 236.242 141.556 236.465C141.711 236.891 141.73 237.258 141.613 237.566C141.374 238.268 141.077 238.895 140.723 239.446C140.369 239.997 139.963 240.356 139.505 240.522C139.153 240.65 138.786 240.651 138.402 240.526C138.026 240.385 137.687 240.135 137.387 239.774C137.159 240.87 136.624 241.571 135.783 241.877ZM135.771 240.054C136.005 239.969 136.178 239.749 136.29 239.395C136.402 239.04 136.423 238.617 136.352 238.124L135.874 234.969C135.43 235.143 135.077 235.464 134.814 235.934C134.557 236.389 134.414 236.924 134.384 237.538C134.354 238.152 134.448 238.757 134.665 239.353C134.785 239.683 134.938 239.905 135.124 240.018C135.321 240.128 135.536 240.14 135.771 240.054Z" fill="#FF0400"/>
<path d="M148.187 233.274C148.325 233.223 148.457 233.254 148.582 233.365C148.713 233.462 148.816 233.612 148.89 233.814C148.979 234.059 149.011 234.264 148.987 234.43C148.963 234.595 148.89 234.76 148.77 234.925L146.452 238.102C146.85 240.454 146.947 242.378 146.745 243.875C146.556 245.379 145.956 246.315 144.944 246.683C144.401 246.881 143.897 246.872 143.432 246.655C142.971 246.449 142.642 246.074 142.444 245.531C142.262 245.03 142.188 244.479 142.222 243.875C142.266 243.268 142.473 242.511 142.843 241.605C143.227 240.705 143.83 239.612 144.651 238.323L144.566 237.939C144.497 237.517 144.377 236.922 144.205 236.152C144.271 236.997 144.186 237.691 143.95 238.235C143.71 238.769 143.377 239.113 142.951 239.268C142.472 239.442 141.998 239.368 141.53 239.043C141.069 238.705 140.719 238.205 140.478 237.545C140.188 236.746 139.975 235.997 139.842 235.298C139.704 234.588 139.622 233.816 139.596 232.982C139.586 232.623 139.651 232.34 139.793 232.132C139.934 231.924 140.212 231.744 140.628 231.593C140.862 231.507 141.035 231.487 141.148 231.53C141.271 231.57 141.359 231.664 141.414 231.813C141.445 231.898 141.491 232.207 141.552 232.74C141.589 233.173 141.633 233.56 141.686 233.903C141.76 234.371 141.838 234.819 141.921 235.247C142.001 235.664 142.087 236 142.18 236.256C142.328 236.661 142.513 236.822 142.737 236.741C142.896 236.683 143.035 236.451 143.153 236.047C143.282 235.638 143.361 235.06 143.391 234.314C143.431 233.563 143.407 232.668 143.318 231.627C143.287 231.276 143.331 231.001 143.451 230.8C143.582 230.596 143.823 230.43 144.174 230.302C144.419 230.213 144.601 230.183 144.72 230.212C144.839 230.241 144.926 230.33 144.98 230.479C145.077 230.745 145.272 231.711 145.565 233.378L146.086 236.101C146.681 235.185 147.274 234.33 147.866 233.535C147.973 233.4 148.08 233.313 148.187 233.274ZM144.556 245.07C144.822 244.973 145.008 244.556 145.114 243.818C145.219 243.08 145.175 241.932 144.982 240.374C144.414 241.365 144.046 242.21 143.879 242.91C143.726 243.617 143.727 244.184 143.882 244.61C143.948 244.791 144.034 244.928 144.141 245.022C144.258 245.112 144.396 245.128 144.556 245.07Z" fill="#FF0400"/>
<path d="M149.928 236.729C149.524 236.876 149.159 236.767 148.833 236.403C148.518 236.036 148.19 235.383 147.849 234.446C147.345 233.061 147.064 231.674 147.004 230.285C146.988 229.941 147.061 229.661 147.223 229.445C147.393 229.215 147.674 229.028 148.068 228.885C148.281 228.807 148.44 228.779 148.545 228.802C148.649 228.824 148.729 228.91 148.783 229.059C148.845 229.229 148.905 229.642 148.962 230.296C149.011 230.761 149.061 231.165 149.113 231.507C149.162 231.839 149.25 232.248 149.378 232.732C149.363 231.796 149.448 230.969 149.633 230.251C149.828 229.528 150.083 228.953 150.398 228.525C150.719 228.083 151.066 227.793 151.439 227.658C151.812 227.522 152.104 227.512 152.315 227.628C152.537 227.741 152.711 227.973 152.839 228.324C152.963 228.665 153.087 229.319 153.21 230.288C153.265 230.702 153.311 231.011 153.349 231.214C153.404 229.71 153.648 228.542 154.081 227.709C154.514 226.876 155.012 226.357 155.577 226.152C156.269 225.9 156.741 226.12 156.993 226.812C157.144 227.228 157.3 228.021 157.461 229.193C157.596 230.193 157.718 230.842 157.826 231.14C157.981 231.566 158.213 231.723 158.522 231.611C158.735 231.533 158.939 231.314 159.133 230.954C159.335 230.579 159.574 230.01 159.85 229.246C159.924 229.05 160.041 228.923 160.2 228.865C160.339 228.815 160.469 228.84 160.59 228.94C160.721 229.037 160.828 229.197 160.909 229.421C161.064 229.847 161.083 230.214 160.966 230.522C160.714 231.253 160.387 231.897 159.986 232.453C159.596 233.005 159.066 233.403 158.395 233.647C157.852 233.845 157.386 233.839 156.996 233.631C156.603 233.413 156.298 233.005 156.081 232.409C155.972 232.11 155.853 231.551 155.723 230.73C155.617 230.008 155.518 229.52 155.425 229.264C155.363 229.094 155.273 229.03 155.156 229.073C155.018 229.123 154.887 229.376 154.763 229.831C154.635 230.276 154.55 230.837 154.508 231.516C154.465 232.195 154.482 232.888 154.559 233.596C154.628 234.15 154.614 234.541 154.516 234.769C154.429 234.994 154.215 235.168 153.874 235.292C153.523 235.42 153.196 235.352 152.895 235.088C152.601 234.809 152.366 234.43 152.192 233.951C152.045 233.546 151.885 232.941 151.712 232.135C151.549 231.423 151.429 230.96 151.351 230.747C151.289 230.577 151.2 230.513 151.083 230.555C150.923 230.614 150.79 230.879 150.685 231.351C150.58 231.824 150.518 232.401 150.501 233.083C150.494 233.761 150.527 234.412 150.597 235.038C150.662 235.581 150.648 235.972 150.554 236.211C150.467 236.436 150.258 236.608 149.928 236.729Z" fill="#FF0400"/>
<path d="M166.481 226.579C166.619 226.529 166.749 226.554 166.87 226.655C167.002 226.751 167.108 226.912 167.19 227.135C167.345 227.561 167.364 227.928 167.247 228.236C167.027 228.859 166.629 229.504 166.052 230.173C165.486 230.837 164.792 231.318 163.972 231.617C162.854 232.024 161.876 232.036 161.037 231.654C160.198 231.272 159.587 230.554 159.204 229.499C158.936 228.764 158.842 228.027 158.923 227.286C158.999 226.534 159.241 225.874 159.648 225.303C160.066 224.729 160.621 224.316 161.314 224.064C161.931 223.839 162.494 223.845 163.003 224.082C163.507 224.308 163.874 224.736 164.103 225.364C164.37 226.099 164.335 226.83 163.996 227.556C163.664 228.268 162.926 229.007 161.782 229.773C162.226 230.166 162.821 230.227 163.567 229.955C164.046 229.781 164.529 229.418 165.016 228.867C165.51 228.302 165.881 227.666 166.131 226.96C166.204 226.764 166.321 226.637 166.481 226.579ZM161.612 225.728C161.218 225.871 160.966 226.223 160.856 226.781C160.756 227.336 160.824 227.938 161.061 228.588L161.073 228.62C161.647 228.242 162.06 227.838 162.314 227.408C162.568 226.978 162.623 226.566 162.479 226.172C162.406 225.97 162.289 225.831 162.129 225.757C161.976 225.668 161.804 225.658 161.612 225.728Z" fill="#FF0400"/>
<path d="M168.087 230.119C167.682 230.267 167.317 230.158 166.992 229.794C166.677 229.426 166.349 228.774 166.008 227.837C165.504 226.452 165.222 225.065 165.163 223.676C165.146 223.332 165.219 223.052 165.382 222.836C165.551 222.606 165.833 222.419 166.227 222.275C166.44 222.198 166.599 222.17 166.704 222.192C166.808 222.215 166.888 222.3 166.942 222.449C167.004 222.62 167.064 223.032 167.121 223.687C167.169 224.152 167.22 224.555 167.272 224.898C167.325 225.241 167.415 225.654 167.543 226.138C167.561 225.095 167.684 224.206 167.911 223.472C168.138 222.738 168.415 222.173 168.741 221.776C169.078 221.376 169.422 221.112 169.774 220.985C170.466 220.733 170.938 220.953 171.19 221.645C171.341 222.06 171.497 222.854 171.658 224.025C171.793 225.026 171.915 225.675 172.023 225.973C172.178 226.399 172.41 226.556 172.719 226.443C172.932 226.366 173.136 226.147 173.331 225.787C173.532 225.412 173.771 224.842 174.048 224.078C174.121 223.883 174.238 223.756 174.397 223.698C174.536 223.647 174.666 223.672 174.787 223.773C174.918 223.87 175.025 224.03 175.106 224.254C175.261 224.68 175.28 225.047 175.163 225.355C174.911 226.086 174.584 226.729 174.184 227.285C173.793 227.837 173.263 228.235 172.592 228.48C172.049 228.677 171.583 228.672 171.193 228.464C170.8 228.245 170.495 227.838 170.278 227.241C170.169 226.943 170.05 226.384 169.92 225.562C169.814 224.841 169.715 224.353 169.622 224.097C169.56 223.927 169.47 223.863 169.353 223.905C169.215 223.956 169.084 224.209 168.96 224.664C168.843 225.104 168.758 225.666 168.705 226.349C168.662 227.027 168.68 227.721 168.756 228.428C168.821 228.972 168.807 229.363 168.713 229.602C168.626 229.827 168.417 229.999 168.087 230.119Z" fill="#FF0400"/>
<path d="M175.328 220.682C175.5 221.222 175.641 221.641 175.749 221.939C176.028 222.706 176.285 223.294 176.518 223.704C176.758 224.099 177.004 224.359 177.255 224.485C177.512 224.596 177.806 224.592 178.136 224.472C178.307 224.41 178.49 224.283 178.685 224.091C178.881 223.899 179.043 223.683 179.173 223.443C179.251 223.294 179.349 223.198 179.466 223.155C179.594 223.109 179.722 223.147 179.851 223.269C179.987 223.376 180.091 223.531 180.165 223.733C180.239 223.936 180.268 224.148 180.252 224.371C180.248 224.59 180.189 224.792 180.075 224.978C179.688 225.637 179.143 226.095 178.44 226.351C177.429 226.719 176.535 226.568 175.76 225.897C174.982 225.216 174.344 224.193 173.848 222.83C173.678 222.362 173.521 221.882 173.379 221.391L172.756 221.618C172.436 221.734 172.197 221.755 172.037 221.68C171.888 221.602 171.767 221.435 171.673 221.18C171.456 220.583 171.587 220.198 172.067 220.023L172.977 219.692C172.732 218.454 172.619 217.283 172.639 216.179C172.659 215.074 172.826 214.139 173.138 213.374C173.461 212.605 173.926 212.11 174.533 211.889C174.981 211.726 175.404 211.795 175.803 212.096C176.202 212.397 176.51 212.846 176.727 213.442C177.328 215.093 177.159 216.783 176.22 218.512L178.009 217.86C178.18 217.798 178.316 217.791 178.417 217.838C178.519 217.886 178.607 218.011 178.68 218.213C178.948 218.948 178.48 219.534 177.277 219.972L175.328 220.682ZM174.66 213.58C174.501 213.638 174.393 213.906 174.338 214.384C174.29 214.848 174.305 215.47 174.384 216.249C174.469 217.014 174.61 217.849 174.807 218.755C175.238 217.983 175.485 217.205 175.55 216.422C175.621 215.624 175.556 214.948 175.355 214.394C175.126 213.766 174.895 213.494 174.66 213.58Z" fill="#FF0400"/>
<path d="M186.839 223.294C186.434 223.441 186.069 223.333 185.744 222.969C185.429 222.601 185.101 221.949 184.76 221.012C184.256 219.627 183.974 218.24 183.915 216.851C183.898 216.507 183.971 216.227 184.134 216.011C184.303 215.781 184.585 215.594 184.979 215.45C185.192 215.373 185.351 215.345 185.455 215.367C185.56 215.39 185.639 215.475 185.693 215.624C185.756 215.795 185.815 216.207 185.873 216.862C185.921 217.327 185.972 217.73 186.024 218.073C186.076 218.416 186.166 218.829 186.294 219.313C186.313 218.269 186.435 217.381 186.663 216.647C186.89 215.913 187.167 215.347 187.493 214.951C187.83 214.551 188.174 214.287 188.525 214.16C189.218 213.908 189.69 214.128 189.942 214.82C190.093 215.235 190.249 216.029 190.41 217.2C190.545 218.2 190.667 218.85 190.775 219.148C190.93 219.574 191.162 219.731 191.471 219.618C191.684 219.541 191.888 219.322 192.082 218.962C192.283 218.587 192.522 218.017 192.799 217.253C192.873 217.058 192.989 216.931 193.149 216.873C193.288 216.822 193.417 216.847 193.538 216.948C193.67 217.045 193.777 217.205 193.858 217.429C194.013 217.855 194.032 218.222 193.915 218.53C193.662 219.261 193.336 219.904 192.935 220.46C192.545 221.012 192.015 221.41 191.344 221.655C190.801 221.852 190.334 221.847 189.945 221.639C189.552 221.42 189.247 221.013 189.03 220.416C188.921 220.118 188.802 219.558 188.672 218.737C188.566 218.016 188.467 217.528 188.374 217.272C188.312 217.102 188.222 217.038 188.105 217.08C187.966 217.131 187.835 217.384 187.712 217.839C187.595 218.279 187.509 218.841 187.456 219.524C187.414 220.202 187.431 220.896 187.508 221.603C187.573 222.147 187.558 222.538 187.465 222.777C187.378 223.002 187.169 223.174 186.839 223.294Z" fill="#FF0400"/>
<path d="M199.963 212.873C200.101 212.823 200.233 212.853 200.358 212.964C200.483 213.076 200.584 213.238 200.661 213.451C200.847 213.962 200.804 214.322 200.53 214.53C199.972 214.986 199.316 215.37 198.56 215.681C198.684 216.649 198.546 217.513 198.147 218.274C197.745 219.023 197.165 219.536 196.409 219.811C195.77 220.043 195.166 220.089 194.595 219.946C194.035 219.8 193.545 219.514 193.125 219.089C192.705 218.663 192.386 218.151 192.169 217.555C191.874 216.746 191.767 215.971 191.847 215.23C191.924 214.478 192.169 213.828 192.585 213.279C192.996 212.719 193.532 212.319 194.192 212.079C195.001 211.784 195.754 211.83 196.449 212.216C197.151 212.588 197.694 213.168 198.078 213.957C198.567 213.743 199.124 213.419 199.751 212.986C199.828 212.934 199.899 212.896 199.963 212.873ZM195.921 218.071C196.261 217.947 196.504 217.702 196.648 217.336C196.803 216.966 196.828 216.505 196.723 215.952C196.312 215.848 195.949 215.648 195.637 215.352C195.334 215.052 195.11 214.7 194.962 214.295C194.9 214.125 194.854 213.948 194.824 213.766L194.744 213.795C194.318 213.951 194.037 214.288 193.901 214.808C193.771 215.314 193.842 215.939 194.113 216.684C194.327 217.27 194.601 217.677 194.937 217.904C195.284 218.128 195.612 218.183 195.921 218.071Z" fill="#FF0400"/>
<path d="M201.692 211.086C201.865 211.626 202.005 212.045 202.114 212.343C202.393 213.11 202.649 213.698 202.883 214.108C203.123 214.503 203.368 214.763 203.619 214.889C203.877 215 204.171 214.996 204.501 214.876C204.671 214.814 204.854 214.687 205.05 214.495C205.245 214.303 205.408 214.087 205.538 213.847C205.616 213.698 205.714 213.602 205.831 213.559C205.959 213.513 206.087 213.551 206.216 213.673C206.351 213.78 206.456 213.935 206.53 214.137C206.603 214.34 206.632 214.552 206.617 214.775C206.612 214.994 206.553 215.196 206.44 215.382C206.053 216.042 205.508 216.499 204.805 216.755C203.793 217.123 202.9 216.972 202.125 216.301C201.346 215.62 200.709 214.597 200.213 213.234C200.042 212.766 199.886 212.286 199.743 211.795L199.12 212.022C198.801 212.138 198.561 212.159 198.401 212.085C198.252 212.006 198.131 211.839 198.038 211.584C197.821 210.987 197.952 210.602 198.431 210.427L199.342 210.096C199.097 208.859 198.984 207.687 199.004 206.583C199.024 205.478 199.19 204.543 199.503 203.778C199.826 203.009 200.291 202.514 200.898 202.293C201.345 202.13 201.768 202.199 202.168 202.5C202.567 202.801 202.875 203.25 203.092 203.847C203.692 205.497 203.524 207.187 202.585 208.916L204.374 208.264C204.544 208.202 204.68 208.195 204.782 208.242C204.884 208.29 204.971 208.415 205.045 208.617C205.313 209.352 204.845 209.938 203.641 210.376L201.692 211.086ZM201.025 203.984C200.865 204.042 200.758 204.31 200.703 204.788C200.654 205.252 200.67 205.874 200.748 206.653C200.834 207.418 200.975 208.253 201.172 209.159C201.602 208.387 201.85 207.609 201.915 206.826C201.986 206.028 201.921 205.352 201.719 204.798C201.491 204.17 201.259 203.898 201.025 203.984Z" fill="#FF0400"/>
<path d="M213.203 213.698C212.799 213.846 212.434 213.737 212.108 213.373C211.793 213.005 211.465 212.353 211.124 211.416C210.62 210.031 210.339 208.644 210.279 207.255C210.263 206.911 210.336 206.631 210.498 206.415C210.668 206.185 210.949 205.998 211.343 205.854C211.556 205.777 211.715 205.749 211.82 205.771C211.924 205.794 212.004 205.879 212.058 206.028C212.12 206.199 212.18 206.611 212.237 207.266C212.286 207.731 212.336 208.134 212.389 208.477C212.441 208.82 212.531 209.233 212.659 209.717C212.677 208.674 212.8 207.785 213.027 207.051C213.255 206.317 213.531 205.752 213.857 205.355C214.194 204.955 214.538 204.691 214.89 204.564C215.582 204.312 216.054 204.532 216.306 205.224C216.357 205.362 216.431 205.715 216.529 206.283C216.599 206.74 216.653 207.021 216.692 207.128C216.827 207.501 217.028 207.639 217.294 207.542C217.593 207.433 217.891 207.059 218.189 206.42C218.277 206.231 218.395 206.11 218.545 206.056C218.683 206.005 218.813 206.03 218.934 206.131C219.062 206.217 219.162 206.361 219.236 206.564C219.379 206.958 219.385 207.305 219.254 207.607C219.068 208.024 218.813 208.418 218.49 208.789C218.174 209.145 217.792 209.405 217.344 209.568C216.78 209.773 216.296 209.786 215.894 209.607C215.501 209.425 215.216 209.088 215.038 208.598C214.98 208.439 214.937 208.273 214.911 208.102C214.855 207.881 214.813 207.733 214.786 207.659C214.724 207.488 214.635 207.424 214.517 207.467C214.358 207.525 214.211 207.784 214.076 208.243C213.948 208.687 213.863 209.249 213.821 209.928C213.779 210.606 213.796 211.3 213.872 212.007C213.938 212.551 213.923 212.942 213.829 213.181C213.742 213.406 213.534 213.578 213.203 213.698Z" fill="#FF0400"/>
<path d="M225.138 205.23C225.277 205.179 225.406 205.204 225.527 205.305C225.659 205.402 225.766 205.562 225.847 205.786C226.002 206.212 226.021 206.579 225.904 206.887C225.684 207.509 225.286 208.155 224.709 208.823C224.143 209.487 223.45 209.969 222.63 210.267C221.512 210.674 220.533 210.687 219.694 210.305C218.856 209.922 218.245 209.204 217.861 208.15C217.593 207.415 217.5 206.677 217.58 205.936C217.656 205.185 217.898 204.524 218.306 203.954C218.724 203.379 219.279 202.966 219.971 202.714C220.589 202.489 221.152 202.495 221.66 202.733C222.165 202.959 222.531 203.386 222.76 204.015C223.028 204.75 222.992 205.48 222.653 206.206C222.321 206.918 221.583 207.657 220.439 208.423C220.884 208.816 221.479 208.877 222.224 208.606C222.703 208.431 223.186 208.069 223.673 207.518C224.167 206.952 224.539 206.316 224.788 205.61C224.862 205.415 224.978 205.288 225.138 205.23ZM220.269 204.379C219.875 204.522 219.623 204.873 219.513 205.432C219.413 205.987 219.482 206.589 219.718 207.238L219.73 207.27C220.304 206.893 220.718 206.489 220.971 206.059C221.225 205.629 221.28 205.217 221.137 204.823C221.063 204.62 220.946 204.482 220.786 204.407C220.633 204.318 220.461 204.309 220.269 204.379Z" fill="#FF0400"/>
<path d="M228.662 208.072C227.618 208.452 226.697 208.455 225.898 208.083C225.105 207.696 224.533 207.018 224.18 206.049C223.866 205.186 223.761 204.368 223.866 203.594C223.97 202.82 224.23 202.159 224.645 201.61C225.06 201.061 225.566 200.678 226.163 200.461C226.748 200.247 227.265 200.258 227.712 200.494C228.166 200.714 228.492 201.096 228.69 201.639C228.853 202.087 228.889 202.501 228.799 202.884C228.72 203.263 228.521 203.51 228.201 203.626C227.999 203.7 227.816 203.712 227.654 203.663C227.502 203.61 227.395 203.498 227.333 203.327C227.305 203.253 227.285 203.164 227.272 203.06C227.258 202.957 227.249 202.881 227.244 202.835C227.239 202.656 227.211 202.497 227.161 202.359C227.111 202.22 227.035 202.127 226.933 202.08C226.842 202.029 226.732 202.026 226.605 202.073C226.36 202.162 226.171 202.357 226.04 202.658C225.904 202.949 225.841 203.304 225.848 203.723C225.856 204.142 225.942 204.575 226.104 205.023C226.554 206.258 227.317 206.68 228.392 206.288C228.829 206.13 229.245 205.815 229.641 205.346C230.044 204.861 230.383 204.237 230.66 203.473C230.734 203.277 230.85 203.151 231.01 203.092C231.148 203.042 231.278 203.067 231.399 203.168C231.531 203.265 231.638 203.425 231.719 203.648C231.866 204.053 231.885 204.42 231.776 204.749C231.5 205.549 231.073 206.248 230.494 206.844C229.922 207.426 229.311 207.836 228.662 208.072Z" fill="#FF0400"/>
<path d="M237.291 200.806C237.429 200.756 237.559 200.781 237.68 200.882C237.812 200.979 237.918 201.139 238 201.362C238.155 201.788 238.174 202.155 238.057 202.463C237.837 203.086 237.439 203.732 236.862 204.4C236.296 205.064 235.603 205.546 234.782 205.844C233.664 206.251 232.686 206.264 231.847 205.881C231.009 205.499 230.397 204.781 230.014 203.726C229.746 202.992 229.652 202.254 229.733 201.513C229.809 200.762 230.051 200.101 230.458 199.53C230.876 198.956 231.432 198.543 232.124 198.291C232.741 198.066 233.305 198.072 233.813 198.309C234.317 198.536 234.684 198.963 234.913 199.591C235.18 200.326 235.145 201.057 234.806 201.783C234.474 202.495 233.736 203.234 232.592 204C233.036 204.393 233.631 204.454 234.377 204.183C234.856 204.008 235.339 203.645 235.826 203.094C236.32 202.529 236.691 201.893 236.941 201.187C237.014 200.991 237.131 200.865 237.291 200.806ZM232.422 199.955C232.028 200.099 231.776 200.45 231.666 201.009C231.566 201.563 231.635 202.166 231.871 202.815L231.883 202.847C232.457 202.469 232.87 202.066 233.124 201.636C233.378 201.206 233.433 200.794 233.289 200.399C233.216 200.197 233.099 200.059 232.939 199.984C232.786 199.895 232.614 199.886 232.422 199.955Z" fill="#FF0400"/>
<path d="M236.733 195.419C236.286 195.582 235.914 195.603 235.617 195.482C235.315 195.35 235.097 195.098 234.961 194.725C234.826 194.353 234.857 193.992 235.055 193.642C235.261 193.278 235.581 193.016 236.018 192.857C236.412 192.714 236.767 192.693 237.081 192.796C237.396 192.899 237.617 193.126 237.745 193.477C237.9 193.903 237.886 194.294 237.702 194.651C237.514 194.996 237.191 195.252 236.733 195.419ZM239.728 204.044C239.036 204.296 238.441 204.235 237.943 203.862C237.456 203.484 237.065 202.891 236.77 202.081C236.596 201.602 236.432 200.968 236.277 200.18C236.13 199.378 236.034 198.617 235.989 197.897C235.961 197.522 236.003 197.241 236.117 197.055C236.23 196.869 236.462 196.712 236.814 196.584C237.357 196.386 237.694 196.468 237.826 196.831C237.923 197.097 238.047 197.751 238.197 198.794C238.368 200.059 238.529 200.899 238.68 201.314C238.796 201.633 238.928 201.863 239.075 202.002C239.222 202.142 239.397 202.174 239.6 202.101C239.791 202.031 239.982 201.811 240.173 201.44C240.364 201.069 240.594 200.509 240.864 199.759C240.937 199.564 241.054 199.437 241.214 199.379C241.352 199.328 241.482 199.353 241.603 199.454C241.735 199.551 241.841 199.711 241.923 199.935C242.078 200.361 242.097 200.728 241.98 201.036C241.394 202.708 240.644 203.711 239.728 204.044Z" fill="#FF0400"/>
<path d="M247.961 195.457C247.989 195.435 248.041 195.41 248.115 195.383C248.275 195.325 248.417 195.334 248.541 195.409C248.665 195.485 248.76 195.613 248.825 195.794C248.946 196.124 248.977 196.408 248.919 196.647C248.857 196.874 248.714 197.077 248.489 197.255C248.057 197.593 247.564 197.863 247.011 198.065C246.542 198.235 246.077 198.332 245.615 198.356C245.488 198.969 245.336 199.609 245.157 200.277C244.952 201.039 244.735 201.588 244.508 201.924C244.28 202.261 243.97 202.5 243.576 202.644C243.139 202.803 242.731 202.758 242.351 202.51C241.982 202.259 241.632 201.777 241.301 201.066C240.63 199.621 240.091 198.34 239.684 197.222L239.481 196.662C239.364 196.307 239.37 196.027 239.501 195.823C239.632 195.619 239.878 195.451 240.24 195.319C240.517 195.218 240.743 195.208 240.917 195.289C241.098 195.356 241.241 195.533 241.346 195.821C241.791 197.046 242.445 198.611 243.308 200.516C243.602 199.336 243.806 198.405 243.92 197.724C243.648 197.474 243.434 197.135 243.279 196.709C243.147 196.347 243.099 195.967 243.135 195.568C243.171 195.169 243.288 194.812 243.488 194.499C243.687 194.185 243.962 193.964 244.314 193.836C244.623 193.724 244.914 193.744 245.187 193.898C245.456 194.041 245.666 194.321 245.817 194.736C245.992 195.215 246.063 195.81 246.033 196.521C246.43 196.352 246.938 196.077 247.559 195.694L247.961 195.457Z" fill="#FF0400"/>
<path d="M254.826 194.424C254.964 194.374 255.094 194.399 255.215 194.5C255.347 194.596 255.453 194.757 255.535 194.98C255.69 195.406 255.709 195.773 255.591 196.081C255.372 196.704 254.974 197.349 254.397 198.018C253.83 198.682 253.137 199.164 252.317 199.462C251.199 199.869 250.221 199.881 249.382 199.499C248.543 199.117 247.932 198.399 247.548 197.344C247.281 196.609 247.187 195.872 247.267 195.131C247.344 194.38 247.586 193.719 247.993 193.148C248.411 192.574 248.966 192.161 249.659 191.909C250.276 191.684 250.839 191.69 251.348 191.927C251.852 192.154 252.219 192.581 252.448 193.209C252.715 193.944 252.679 194.675 252.341 195.401C252.009 196.113 251.271 196.852 250.127 197.618C250.571 198.011 251.166 198.072 251.912 197.801C252.391 197.626 252.874 197.263 253.361 196.712C253.854 196.147 254.226 195.511 254.476 194.805C254.549 194.609 254.666 194.482 254.826 194.424ZM249.957 193.573C249.563 193.717 249.311 194.068 249.2 194.626C249.101 195.181 249.169 195.783 249.406 196.433L249.417 196.465C249.991 196.087 250.405 195.683 250.659 195.253C250.912 194.823 250.967 194.411 250.824 194.017C250.75 193.815 250.634 193.677 250.474 193.602C250.321 193.513 250.149 193.503 249.957 193.573Z" fill="#FF0400"/>
<path d="M259.709 192.647C260.144 193.478 260.628 194.278 261.162 195.049C261.255 195.172 261.329 195.308 261.383 195.457C261.557 195.936 261.352 196.282 260.766 196.495C260.436 196.616 260.147 196.618 259.9 196.503C259.664 196.384 259.38 196.101 259.049 195.655L259.01 195.597C258.787 196.245 258.542 196.714 258.274 197.005C258.016 197.291 257.675 197.512 257.249 197.667C256.599 197.904 255.974 197.86 255.374 197.535C254.78 197.197 254.342 196.639 254.059 195.861C253.749 195.009 253.643 194.155 253.741 193.299C253.84 192.443 254.12 191.672 254.581 190.985C255.039 190.288 255.639 189.75 256.382 189.371C255.852 187.285 255.597 185.393 255.619 183.697C255.652 181.997 256.142 180.974 257.09 180.629C257.548 180.462 258.001 180.532 258.451 180.839C258.911 181.142 259.294 181.714 259.6 182.556C260.026 183.727 260.237 185.2 260.232 186.975C260.226 188.75 260.052 190.641 259.709 192.647ZM257.484 182.258C257.175 182.371 257.169 183.266 257.466 184.943C257.773 186.616 258.216 188.396 258.795 190.284C259.047 187.298 258.882 185.006 258.3 183.409C258.153 183.004 258.001 182.703 257.845 182.507C257.7 182.306 257.58 182.224 257.484 182.258ZM257.22 195.85C257.433 195.773 257.607 195.619 257.74 195.39C257.885 195.156 258.028 194.754 258.17 194.184C257.78 193.445 257.435 192.661 257.132 191.83C257.012 191.5 256.924 191.242 256.869 191.057C256.345 191.441 256.002 192.006 255.84 192.753C255.677 193.499 255.73 194.24 255.997 194.975C256.28 195.752 256.688 196.044 257.22 195.85Z" fill="#FF0400"/>
<path d="M99.2413 73.7865C98.9501 73.7862 98.6595 73.7606 98.3728 73.7099L70.0547 68.7134V21.9119H101.228L100.456 22.8117C89.718 35.3347 97.8077 55.6409 103.585 66.6305C104.011 67.4354 104.201 68.3442 104.133 69.2523C104.065 70.1603 103.742 71.0308 103.201 71.7633C102.748 72.3897 102.153 72.8997 101.465 73.2514C100.776 73.6031 100.014 73.7865 99.2413 73.7865Z" fill="#2F2E41"/>
</svg>
