<svg width="570" height="573" viewBox="0 0 570 573" fill="none" xmlns="http://www.w3.org/2000/svg">
<path d="M28.6623 428.954C33.1441 383.208 60.2325 337.542 103.333 321.569C87.4067 368.951 88.7529 420.438 107.134 466.923C114.287 484.824 124.108 503.99 118.297 522.371C114.682 533.809 105.341 542.731 94.7875 548.432C84.2338 554.134 72.4318 557.028 60.7771 559.867L58.5201 561.834C38.8181 520.305 24.1804 474.701 28.6623 428.954Z" fill="#97C867"/>
<path d="M103.787 322.42C79.4517 351.144 64.1351 387.828 61.4571 425.435C60.8781 433.566 60.9984 441.864 62.9796 449.811C64.9703 457.543 68.9952 464.601 74.6361 470.252C79.7898 475.626 85.6838 480.526 89.4414 487.059C93.4021 493.946 93.7542 501.878 91.3609 509.365C88.4325 518.526 82.3873 526.087 76.2186 533.277C69.3695 541.259 62.1289 549.442 59.4006 559.859C59.0701 561.121 57.1309 560.535 57.461 559.274C62.2077 541.15 79.4029 530.478 87.3079 514.059C90.9965 506.398 92.3986 497.579 88.5478 489.693C85.1804 482.798 79.1067 477.739 73.8414 472.343C68.3128 466.677 64.0237 460.414 61.6993 452.782C59.3216 444.975 58.8766 436.664 59.2452 428.554C60.2181 410.17 64.0755 392.054 70.676 374.869C78.1003 355.213 88.8323 336.973 102.408 320.936C103.248 319.944 104.622 321.435 103.787 322.42Z" fill="white"/>
<path d="M61.6827 413.166C55.3851 411.809 49.7746 408.259 45.8532 403.148C41.9318 398.037 39.9549 391.699 40.2754 385.265C40.2908 385.002 40.4075 384.756 40.6008 384.578C40.7941 384.401 41.0489 384.305 41.3116 384.311C41.5742 384.317 41.8242 384.425 42.0088 384.612C42.1934 384.799 42.2982 385.05 42.3012 385.313C41.9916 391.304 43.8338 397.208 47.4951 401.96C51.1565 406.711 56.3958 409.998 62.2675 411.226C63.5432 411.494 62.9511 413.432 61.6827 413.166Z" fill="white"/>
<path d="M71.664 467.871C82.7907 460.828 90.8539 449.849 94.2458 437.125C94.5808 435.864 96.52 436.45 96.1854 437.71C92.6311 450.944 84.2169 462.352 72.622 469.656C71.5164 470.352 70.5644 468.563 71.664 467.871Z" fill="white"/>
<path d="M80.0291 357.083C82.3565 358.115 84.9038 358.554 87.4424 358.358C89.981 358.163 92.4313 357.34 94.5733 355.964C95.6695 355.255 96.6204 357.045 95.5313 357.749C93.1576 359.259 90.4504 360.164 87.6461 360.386C84.8419 360.608 82.0259 360.14 79.4443 359.023C79.1921 358.938 78.9817 358.76 78.8559 358.525C78.7301 358.291 78.6982 358.017 78.7669 357.76C78.8456 357.504 79.0223 357.289 79.2587 357.162C79.495 357.035 79.7719 357.007 80.0291 357.083Z" fill="white"/>
<path d="M238.013 399.559C237.341 400.021 236.669 400.483 235.997 400.963C226.996 407.224 218.518 414.206 210.647 421.84C210.029 422.421 209.411 423.019 208.811 423.616C190.045 442.211 174.894 464.128 164.128 488.254C159.853 497.858 156.315 507.773 153.544 517.914C149.719 531.919 146.685 547.409 138.691 558.991C137.871 560.209 136.976 561.375 136.011 562.482L61.0956 564.435C60.9231 564.354 60.7503 564.29 60.577 564.209L57.5894 564.424C57.6957 563.891 57.8175 563.341 57.9239 562.808C57.9843 562.498 58.0614 562.188 58.1218 561.879C58.1674 561.672 58.2138 561.466 58.2431 561.277C58.258 561.208 58.2737 561.139 58.2891 561.088C58.3184 560.899 58.3657 560.727 58.3954 560.555C59.0676 557.476 59.7626 554.396 60.4804 551.316C60.48 551.298 60.48 551.298 60.4962 551.281C66.0255 527.824 73.5617 504.623 84.3798 483.303C84.7055 482.662 85.0299 482.003 85.3898 481.361C90.3194 471.778 96.024 462.614 102.447 453.96C105.979 449.233 109.748 444.688 113.739 440.342C124.075 429.133 136.109 419.619 149.401 412.149C175.901 397.262 206.867 391.015 235.808 398.932C236.548 399.135 237.273 399.339 238.013 399.559Z" fill="#28D94F"/>
<path d="M237.87 400.514C201.146 408.796 166.83 428.865 142.05 457.28C136.692 463.423 131.792 470.121 128.589 477.66C125.523 485.032 124.488 493.09 125.59 500.998C126.469 508.392 128.225 515.853 127.291 523.332C126.308 531.215 121.813 537.761 115.394 542.297C107.541 547.848 98.1615 550.247 88.9076 552.273C78.6329 554.523 67.9251 556.697 59.4749 563.372C58.4511 564.181 57.256 562.545 58.2783 561.737C72.9802 550.124 93.1353 551.955 109.332 543.605C116.89 539.709 123.319 533.511 124.992 524.897C126.455 517.364 124.651 509.668 123.696 502.19C122.693 494.337 123.039 486.754 125.778 479.26C128.58 471.595 133.229 464.692 138.406 458.438C150.251 444.346 164.238 432.203 179.855 422.456C197.617 411.232 217.168 403.129 237.662 398.498C238.93 398.212 239.13 400.23 237.87 400.514Z" fill="white"/>
<path d="M149.617 447.619C145.406 442.745 143.064 436.532 143.01 430.09C142.956 423.648 145.194 417.397 149.323 412.453C150.162 411.455 151.752 412.712 150.912 413.711C147.058 418.308 144.974 424.131 145.036 430.13C145.099 436.128 147.303 441.907 151.252 446.422C152.109 447.405 150.469 448.596 149.617 447.619Z" fill="white"/>
<path d="M124.65 497.308C137.775 498.383 150.823 494.472 161.192 486.355C162.219 485.55 163.414 487.185 162.388 487.989C151.582 496.417 137.996 500.459 124.34 499.31C123.039 499.2 123.356 497.198 124.65 497.308Z" fill="white"/>
<path d="M376.505 160.663C376.505 160.663 363.142 217.084 379.474 217.084C395.807 217.084 434.411 153.239 434.411 153.239L421.048 136.906L397.063 170.206L395.807 153.239L376.505 160.663Z" fill="#A0616A"/>
<path d="M430.85 155.691C438.03 155.691 443.85 149.871 443.85 142.691C443.85 135.512 438.03 129.691 430.85 129.691C423.67 129.691 417.85 135.512 417.85 142.691C417.85 149.871 423.67 155.691 430.85 155.691Z" fill="#A0616A"/>
<path d="M365.175 544.938L382.478 544.937L390.711 478.191L365.171 478.192L365.175 544.938Z" fill="#A0616A"/>
<path d="M364.565 562.99L417.778 562.988V562.315C417.778 556.822 415.595 551.554 411.711 547.67C407.827 543.786 402.559 541.604 397.066 541.604H397.065L387.345 534.229L369.21 541.605L364.564 541.605L364.565 562.99Z" fill="#2F2E41"/>
<path d="M179.038 523.35L194.521 531.076L231.693 475.031L208.841 463.627L179.038 523.35Z" fill="#A0616A"/>
<path d="M170.431 539.229L218.044 562.99L218.345 562.388C220.797 557.473 221.197 551.785 219.457 546.575C217.716 541.365 213.977 537.06 209.062 534.607L209.061 534.606L203.657 523.668L184.137 522.168L179.98 520.094L170.431 539.229Z" fill="#2F2E41"/>
<path d="M565.23 563.056H4.62C2.06844 563.056 0 565.124 0 567.676C0 570.227 2.06846 572.296 4.62001 572.296H565.23C567.781 572.296 569.85 570.227 569.85 567.676C569.85 565.124 567.781 563.056 565.23 563.056Z" fill="#CCCCCC"/>
<path d="M253.298 263.019C253.298 263.019 246.383 346.167 244.898 363.984C243.88 375.153 241.384 386.137 237.474 396.649C237.474 396.649 234.505 402.588 234.505 408.527L200.85 469.691C200.85 469.691 190.566 477.251 192.051 483.19C193.535 489.129 185.85 492.691 185.85 492.691L221.292 499.522C221.292 499.522 219.807 495.068 224.261 493.583C228.716 492.098 232.261 479.22 232.261 479.22L282.018 398.134L317.652 323.896C317.652 323.896 338.439 390.71 342.893 398.134C342.893 398.134 359.225 481.281 362.195 488.705C365.164 496.129 366.649 496.129 365.164 499.098C363.68 502.068 363.68 505.037 365.164 506.522C366.649 508.007 394.86 506.522 394.86 506.522L387.436 401.104L374.073 274.898L305.774 254.111L253.298 263.019Z" fill="#2F2E41"/>
<path d="M322.331 70.5224C339.551 70.5224 353.511 56.5626 353.511 39.3423C353.511 22.1219 339.551 8.16211 322.331 8.16211C305.111 8.16211 291.151 22.1219 291.151 39.3423C291.151 56.5626 305.111 70.5224 322.331 70.5224Z" fill="#A0616A"/>
<path d="M377.042 110.089L339.924 87.6006C339.924 87.6006 338.896 73.6358 328.32 72.9787C323.01 72.6488 315.042 72.1444 303.085 71.3735C300.558 71.2106 298.853 85.0357 295.957 84.8481L256.776 95.2415L262.715 196.206C262.715 196.206 253.807 236.295 256.776 243.718C259.746 251.142 249.352 254.112 252.322 255.597C255.291 257.081 252.322 267.475 252.322 267.475C252.322 267.475 310.228 297.17 374.073 274.898L368.134 255.596C368.942 253.073 369.094 250.386 368.574 247.788C368.054 245.19 366.881 242.767 365.164 240.749C365.164 240.749 371.103 231.84 363.679 224.416C363.679 224.416 366.649 211.053 359.225 205.114L357.74 184.328L362.195 173.934L377.042 110.089Z" fill="#E6E6E6"/>
<path d="M295.275 57.155L294.403 55.1306C294.291 54.8688 283.264 28.8015 293.038 12.7224C297.563 5.27853 305.79 1.07588 317.49 0.232133C335.797 -1.0916 348.327 3.25113 354.741 13.1306C355.816 14.8049 356.421 16.7381 356.491 18.7269C356.561 20.7157 356.093 22.6866 355.138 24.4324C354.183 26.1781 352.775 27.6343 351.062 28.6478C349.35 29.6612 347.396 30.1945 345.406 30.1916H345.16L341.796 25.8239L341.6 26.2487C340.382 28.8835 337.585 30.3259 334.31 30.0099C333.752 29.9699 333.259 30.4509 332.862 31.4802C332.729 31.9304 332.477 32.3365 332.132 32.6556C331.788 32.9748 331.364 33.1954 330.905 33.2942C328.484 33.7653 325.034 30.7165 323.49 29.197C323.43 29.5467 323.296 29.8796 323.097 30.1731C322.898 30.4666 322.638 30.7138 322.335 30.8982C320.707 31.8372 318.174 30.6106 317.447 30.2199C311.656 31.4504 307.907 31.1213 306.301 29.2429C305.212 36.9465 302.875 50.8127 300.073 51.5813C299.78 51.6486 299.473 51.62 299.198 51.4996C298.922 51.3793 298.693 51.1735 298.544 50.9128C297.869 50.0368 297.266 49.6003 296.889 49.7229C295.978 50.0129 295.44 53.0149 295.362 54.9524L295.275 57.155Z" fill="#2F2E41"/>
<path d="M360.71 111.573L375.521 109.167C386.191 119.418 393.459 132.696 396.345 147.208C400.799 170.964 402.284 175.418 402.284 175.418L366.649 184.327L347.347 147.208L360.71 111.573Z" fill="#E6E6E6"/>
<path d="M294.987 142.473L285.834 258.507L519.419 276.933L528.572 160.899L294.987 142.473Z" fill="white"/>
<path d="M319.943 151.463C314.226 147.381 306.969 147.086 304.196 147.145C305.042 149.785 307.671 156.556 313.387 160.64C319.117 164.733 326.366 165.019 329.134 164.962C328.289 162.322 325.66 155.548 319.943 151.463Z" fill="#1976D2"/>
<path d="M342.493 225.297L304.986 222.339C303.878 222.251 302.764 222.383 301.706 222.726C300.649 223.07 299.67 223.618 298.824 224.34C297.979 225.062 297.284 225.943 296.779 226.933C296.274 227.924 295.969 229.004 295.882 230.112C295.794 231.22 295.926 232.335 296.269 233.392C296.613 234.45 297.161 235.429 297.883 236.274C298.605 237.12 299.486 237.815 300.476 238.32C301.467 238.825 302.547 239.129 303.655 239.217L341.162 242.176C343.4 242.352 345.617 241.632 347.324 240.175C349.032 238.717 350.09 236.64 350.267 234.402C350.443 232.164 349.724 229.947 348.266 228.24C346.808 226.532 344.732 225.474 342.493 225.297Z" fill="#1976D2"/>
<path d="M519.364 149.62L309.074 133.03C306.628 132.838 304.168 133.129 301.834 133.887C299.501 134.645 297.34 135.855 295.474 137.449C293.608 139.042 292.075 140.987 290.961 143.173C289.847 145.359 289.175 147.744 288.982 150.189L280.895 252.64C280.506 257.581 282.095 262.475 285.313 266.244C288.532 270.014 293.115 272.351 298.056 272.742L508.346 289.332C510.792 289.524 513.252 289.233 515.585 288.475C517.919 287.717 520.08 286.507 521.946 284.913C523.812 283.32 525.345 281.375 526.459 279.189C527.573 277.003 528.245 274.619 528.438 272.173L536.123 174.797L536.278 172.808L536.523 169.712C536.715 167.266 536.424 164.806 535.666 162.473C534.908 160.139 533.698 157.978 532.105 156.112C530.511 154.247 528.566 152.713 526.38 151.599C524.194 150.485 521.81 149.813 519.364 149.62ZM513.154 238.758L511.822 255.637C511.578 258.618 510.164 261.381 507.889 263.323C505.614 265.264 502.662 266.226 499.68 265.998L471.547 263.781C468.565 263.537 465.802 262.123 463.861 259.848C461.919 257.573 460.957 254.622 461.186 251.639L462.518 234.761C462.763 231.78 464.177 229.017 466.452 227.076C468.727 225.135 471.678 224.173 474.66 224.4L502.784 226.619C505.765 226.864 508.528 228.277 510.471 230.551C512.413 232.825 513.378 235.776 513.154 238.758ZM294.02 229.957C294.239 227.226 295.531 224.693 297.615 222.913C299.699 221.134 302.403 220.254 305.135 220.466L342.64 223.427C343.995 223.531 345.316 223.902 346.528 224.517C347.739 225.133 348.818 225.981 349.701 227.013C350.585 228.045 351.257 229.242 351.678 230.534C352.099 231.826 352.261 233.188 352.155 234.543C352.05 235.898 351.678 237.218 351.062 238.429C350.445 239.64 349.596 240.718 348.563 241.601C347.53 242.484 346.333 243.154 345.041 243.574C343.749 243.994 342.386 244.156 341.032 244.049L341.012 244.054L303.507 241.093C302.152 240.986 300.832 240.613 299.622 239.995C298.412 239.377 297.335 238.527 296.454 237.492C295.573 236.458 294.904 235.26 294.487 233.967C294.069 232.674 293.911 231.311 294.02 229.957ZM302.05 146.475L301.793 145.426L302.872 145.327C303.294 145.282 313.271 144.386 321.037 149.934C328.803 155.481 331.185 165.215 331.288 165.622L331.535 166.673L330.459 166.782C328.931 166.896 327.396 166.885 325.87 166.752C321.014 166.467 316.325 164.884 312.291 162.166C304.525 156.618 302.143 146.885 302.05 146.475Z" fill="#1976D2"/>
<path d="M481.603 249.952L469.414 248.99C468.544 248.923 467.684 249.204 467.021 249.771C466.358 250.338 465.947 251.144 465.879 252.014C465.81 252.883 466.089 253.744 466.655 254.408C467.221 255.072 468.027 255.484 468.896 255.554L481.086 256.516C481.955 256.583 482.816 256.302 483.479 255.735C484.141 255.168 484.552 254.361 484.621 253.492C484.689 252.623 484.41 251.762 483.844 251.098C483.279 250.434 482.473 250.022 481.603 249.952Z" fill="#1976D2"/>
<path d="M504.108 251.727L491.918 250.765C491.049 250.699 490.189 250.98 489.526 251.547C488.864 252.114 488.454 252.92 488.385 253.789C488.317 254.658 488.596 255.519 489.161 256.182C489.726 256.846 490.531 257.258 491.4 257.329L503.59 258.291C504.459 258.357 505.319 258.076 505.981 257.509C506.643 256.942 507.054 256.136 507.122 255.267C507.191 254.398 506.912 253.537 506.347 252.874C505.782 252.21 504.976 251.798 504.108 251.727Z" fill="#1976D2"/>
<path d="M482.269 241.513L470.079 240.552C469.21 240.485 468.35 240.766 467.688 241.333C467.025 241.9 466.615 242.706 466.546 243.575C466.478 244.444 466.757 245.305 467.322 245.969C467.887 246.632 468.692 247.045 469.561 247.115L481.751 248.077C482.621 248.144 483.481 247.863 484.144 247.296C484.807 246.73 485.217 245.923 485.286 245.053C485.355 244.184 485.075 243.323 484.51 242.659C483.944 241.995 483.138 241.583 482.269 241.513Z" fill="#1976D2"/>
<path d="M504.773 243.289L492.584 242.327C491.714 242.26 490.854 242.541 490.191 243.108C489.528 243.675 489.117 244.481 489.049 245.351C488.98 246.22 489.259 247.081 489.825 247.745C490.391 248.409 491.197 248.821 492.066 248.891L504.256 249.852C505.125 249.919 505.986 249.639 506.649 249.072C507.311 248.505 507.722 247.698 507.791 246.829C507.859 245.96 507.58 245.098 507.014 244.435C506.449 243.771 505.643 243.359 504.773 243.289Z" fill="#1976D2"/>
<path d="M482.935 233.074L470.745 232.112C469.875 232.045 469.015 232.326 468.352 232.893C467.689 233.46 467.278 234.266 467.21 235.136C467.141 236.005 467.421 236.866 467.986 237.53C468.552 238.194 469.358 238.606 470.227 238.676L482.417 239.638C483.286 239.704 484.146 239.423 484.808 238.856C485.471 238.289 485.881 237.483 485.95 236.614C486.018 235.745 485.739 234.884 485.174 234.221C484.609 233.557 483.804 233.145 482.935 233.074Z" fill="#1976D2"/>
<path d="M505.439 234.849L493.249 233.888C492.38 233.821 491.52 234.102 490.857 234.669C490.195 235.236 489.785 236.042 489.716 236.911C489.648 237.78 489.927 238.641 490.492 239.304C491.057 239.968 491.862 240.381 492.731 240.451L504.921 241.413C505.79 241.479 506.65 241.198 507.312 240.631C507.975 240.065 508.385 239.258 508.454 238.389C508.522 237.52 508.243 236.659 507.678 235.996C507.113 235.332 506.308 234.92 505.439 234.849Z" fill="#1976D2"/>
<path d="M285.856 182.516L285.7 184.511L532.552 203.902L532.709 201.908L285.856 182.516Z" fill="white"/>
<path d="M536.278 172.807L536.123 174.797L527.532 174.123L435.999 166.933L436.164 164.941L527.687 172.133L536.278 172.807Z" fill="#3F3D56"/>
<path d="M234.505 151.663C234.505 151.663 221.142 208.084 237.474 208.084C253.807 208.084 292.411 144.239 292.411 144.239L279.048 127.906L255.063 161.206L253.806 144.239L234.505 151.663Z" fill="#A0616A"/>
<path d="M288.85 146.691C296.03 146.691 301.85 140.871 301.85 133.691C301.85 126.512 296.03 120.691 288.85 120.691C281.67 120.691 275.85 126.512 275.85 133.691C275.85 140.871 281.67 146.691 288.85 146.691Z" fill="#A0616A"/>
<path d="M267.592 104.15L258.684 95.2412C258.684 95.2412 240.867 105.635 239.382 116.028C237.897 126.421 230.473 159.086 230.473 159.086L257.941 161.313L266.85 147.951L267.592 104.15Z" fill="#E6E6E6"/>
</svg>
