<svg width="690" height="449" viewBox="0 0 690 449" fill="none" xmlns="http://www.w3.org/2000/svg">
<g clip-path="url(#clip0_89_430)">
<path d="M211.815 420.111C216.484 410.027 221.149 399.794 223.175 388.869C225.201 377.943 224.351 366.086 218.548 356.609C212.745 347.133 201.32 340.707 190.416 342.849C181.461 344.609 174.27 351.662 170.06 359.759C165.849 367.856 164.16 376.989 162.522 385.968C161.993 375.767 161.433 365.403 158.045 355.768C154.656 346.132 147.984 337.153 138.475 333.425C128.966 329.696 116.596 332.628 111.585 341.528C104.524 354.066 113.886 371.653 105.767 383.534C104.375 371.617 91.9124 362.201 80.0684 364.118C68.2243 366.034 59.3673 378.899 61.8038 390.647C63.2536 397.638 68.0231 403.584 73.7253 407.879C79.4276 412.175 86.0596 417.154 92.6201 419.969L211.815 420.111Z" fill="#CEB10A"/>
<path d="M68.0224 372.538C77.4306 375.827 86.9254 379.153 95.5146 384.294C103.213 388.902 110.068 395.106 114.397 403.051C116.769 407.313 118.177 412.044 118.523 416.909C118.585 417.927 120.177 417.934 120.114 416.909C119.558 407.848 115.142 399.556 109.027 392.999C102.323 385.809 93.6359 380.898 84.6663 377.088C79.3481 374.829 73.8978 372.909 68.4455 371.003C67.4767 370.665 67.0601 372.202 68.0224 372.538Z" fill="white"/>
<path d="M122.291 335.005C128.071 344.634 132.7 354.91 136.082 365.62C139.471 376.327 141.605 387.39 142.443 398.589C142.906 404.857 142.957 411.15 142.594 417.425C142.535 418.449 144.127 418.445 144.186 417.425C144.828 406.111 144.143 394.76 142.146 383.605C140.151 372.451 136.873 361.565 132.377 351.165C129.853 345.323 126.943 339.656 123.665 334.201C123.555 334.027 123.381 333.902 123.18 333.853C122.98 333.804 122.768 333.835 122.59 333.939C122.412 334.043 122.281 334.213 122.225 334.411C122.169 334.61 122.193 334.823 122.291 335.005Z" fill="white"/>
<path d="M200.19 344.147C192.014 362.518 186.26 381.873 183.074 401.726C182.179 407.302 181.486 412.906 180.996 418.538C180.907 419.558 182.499 419.552 182.587 418.538C184.321 398.729 188.602 379.226 195.325 360.512C197.214 355.251 199.294 350.064 201.564 344.951C201.976 344.023 200.605 343.212 200.19 344.147Z" fill="white"/>
<path d="M482.472 441.792L482.344 431.91L435.759 432.513L435.887 442.394L482.472 441.792Z" fill="#E6E6E6"/>
<path d="M499.024 443.996L492.371 443.977L488.259 436.64L492.704 429.327L498.885 429.345C497.337 427.376 495.212 425.941 492.807 425.24C490.402 424.54 487.838 424.61 485.475 425.44C483.112 426.27 481.068 427.819 479.629 429.87C478.191 431.92 477.43 434.37 477.454 436.874C477.477 439.379 478.284 441.814 479.761 443.836C481.239 445.859 483.312 447.369 485.69 448.155C488.069 448.94 490.633 448.961 493.025 448.215C495.416 447.47 497.514 445.994 499.024 443.996Z" fill="#E6E6E6"/>
<path d="M419.211 443.996L425.864 443.977L429.976 436.64L425.531 429.327L419.35 429.345C420.898 427.376 423.023 425.941 425.428 425.24C427.833 424.54 430.397 424.61 432.76 425.44C435.123 426.27 437.167 427.819 438.606 429.87C440.044 431.92 440.805 434.37 440.781 436.874C440.758 439.379 439.951 441.814 438.473 443.836C436.996 445.859 434.923 447.369 432.545 448.155C430.166 448.94 427.602 448.961 425.21 448.215C422.819 447.47 420.721 445.994 419.211 443.996Z" fill="#E6E6E6"/>
<path d="M689 420.969H1C0.734784 420.969 0.480429 420.863 0.292892 420.676C0.105356 420.488 0 420.234 0 419.969C0 419.704 0.105356 419.449 0.292892 419.262C0.480429 419.074 0.734784 418.969 1 418.969H689C689.265 418.969 689.52 419.074 689.707 419.262C689.895 419.449 690 419.704 690 419.969C690 420.234 689.895 420.488 689.707 420.676C689.52 420.863 689.265 420.969 689 420.969Z" fill="#3F3D56"/>
<path d="M540.484 230.969C558.71 230.969 573.484 216.194 573.484 197.969C573.484 179.743 558.71 164.969 540.484 164.969C522.259 164.969 507.484 179.743 507.484 197.969C507.484 216.194 522.259 230.969 540.484 230.969Z" fill="#2F2E41"/>
<path d="M553.859 383.227L556.401 395.22L603.871 391.125L600.12 373.424L553.859 383.227Z" fill="#FFB8B8"/>
<path d="M550.164 420.709L542.176 383.015L556.74 379.929L561.641 403.059C562.46 406.922 561.71 410.951 559.558 414.261C557.406 417.571 554.027 419.89 550.164 420.709Z" fill="#2F2E41"/>
<path d="M524.119 382.586L518.776 393.621L473.672 378.264L481.558 361.979L524.119 382.586Z" fill="#FFB8B8"/>
<path d="M511.808 399.976L522.112 378.695L535.51 385.183L518.719 419.863C516.96 419.011 515.385 417.82 514.085 416.36C512.786 414.899 511.787 413.197 511.145 411.351C510.503 409.504 510.231 407.549 510.345 405.597C510.459 403.646 510.956 401.736 511.808 399.976Z" fill="#2F2E41"/>
<path d="M435.26 360.792C436.804 361.08 438.392 361.025 439.913 360.632C441.433 360.24 442.849 359.518 444.061 358.519C445.273 357.52 446.25 356.267 446.926 354.849C447.601 353.431 447.957 351.883 447.969 350.312L522.342 281.741L503.873 267.436L436.535 339.379C433.895 339.534 431.404 340.652 429.534 342.521C427.663 344.39 426.543 346.88 426.386 349.519C426.229 352.159 427.046 354.764 428.681 356.842C430.316 358.92 432.657 360.325 435.26 360.792Z" fill="#FFB8B8"/>
<path d="M536.342 232.46C549.907 232.46 560.903 221.464 560.903 207.899C560.903 194.334 549.907 183.338 536.342 183.338C522.778 183.338 511.781 194.334 511.781 207.899C511.781 221.464 522.778 232.46 536.342 232.46Z" fill="#FFB8B8"/>
<path d="M558.387 352.272C541.159 352.273 520.409 348.644 507.609 333.795L507.32 333.461L507.617 333.133C507.714 333.026 517.131 322.264 507.728 303.072L494.8 307.049L481.93 290.06L489.059 268.671L518.237 245.167C522.418 241.818 527.507 239.801 532.847 239.378C542.512 238.444 551.926 235.763 560.632 231.465C564.616 229.53 569.004 228.571 573.432 228.667L574.006 228.683C575.352 228.721 576.677 229.032 577.9 229.597C579.123 230.162 580.218 230.97 581.12 231.971C582.021 232.973 582.71 234.146 583.144 235.422C583.579 236.697 583.749 238.047 583.646 239.39C581.668 265.02 578.174 326.934 588.438 348.252L588.703 348.803L588.111 348.953C578.355 351.148 568.387 352.261 558.387 352.272Z" fill="#1D8BF1"/>
<path d="M510.987 333.469C510.987 333.469 445.987 327.469 438.987 346.469C431.987 365.469 439.987 374.469 451.987 378.469C463.987 382.469 492.987 387.469 492.987 387.469L505.987 371.469L539.987 373.469C539.987 373.469 577.871 395.443 588.346 418.943C590.593 424.029 594.177 428.411 598.716 431.622C603.255 434.834 608.58 436.755 614.124 437.182C622.522 437.766 629.987 434.594 629.987 421.469C629.987 391.469 587.987 348.469 587.987 348.469L510.987 333.469Z" fill="#2F2E41"/>
<path d="M461.484 362.969C461.484 362.969 478.484 357.969 505.484 370.969Z" fill="#2F2E41"/>
<path d="M511.844 192.234C521.436 198.09 532.249 201.653 543.443 202.646L540.112 198.655C542.537 199.552 545.089 200.059 547.673 200.157C548.967 200.194 550.251 199.928 551.423 199.379C552.596 198.831 553.623 198.015 554.423 196.998C555.076 195.941 555.464 194.742 555.554 193.503C555.644 192.264 555.433 191.022 554.938 189.883C553.923 187.609 552.343 185.634 550.349 184.144C546.814 181.348 542.642 179.469 538.205 178.676C533.768 177.883 529.203 178.2 524.918 179.599C521.979 180.477 519.347 182.166 517.323 184.471C516.328 185.633 515.637 187.023 515.312 188.517C514.987 190.011 515.038 191.563 515.46 193.032" fill="#2F2E41"/>
<path d="M540.312 172.603C544.677 162.47 551.209 153.417 559.449 146.082C564.741 141.379 570.922 137.338 577.896 136.119C584.869 134.899 592.729 136.989 597.006 142.63C600.504 147.243 601.158 153.423 600.773 159.199C600.388 164.975 599.097 170.696 599.22 176.483C599.346 182.389 600.945 188.169 603.872 193.3C606.799 198.431 610.961 202.749 615.98 205.864C620.999 208.978 626.717 210.789 632.614 211.134C638.511 211.478 644.4 210.344 649.747 207.834C643.726 211.163 639.033 216.432 633.443 220.442C627.852 224.453 620.48 227.203 614.13 224.553C607.412 221.749 604.331 214.133 601.924 207.263L591.192 176.623C589.368 171.415 587.453 166.052 583.73 161.978C580.007 157.904 573.966 155.421 568.841 157.469C564.957 159.021 562.428 162.727 560.211 166.273C557.993 169.819 555.654 173.593 551.907 175.452C548.161 177.312 542.609 176.167 541.384 172.168" fill="#2F2E41"/>
<path d="M539.623 321.192L532.727 328.27L566.093 360.783L572.99 353.706L539.623 321.192Z" fill="#E6E6E6"/>
<path d="M566.508 354.288C565.144 355.688 564.225 357.461 563.869 359.383C563.512 361.304 563.734 363.289 564.505 365.085C565.276 366.881 566.563 368.408 568.202 369.472C569.841 370.537 571.759 371.092 573.713 371.067C575.668 371.041 577.571 370.437 579.182 369.33C580.793 368.223 582.039 366.664 582.764 364.848C583.488 363.033 583.658 361.044 583.252 359.132C582.846 357.22 581.882 355.471 580.482 354.107C578.605 352.278 576.078 351.27 573.458 351.304C570.837 351.337 568.337 352.411 566.508 354.288ZM576.619 364.141C576.034 364.741 575.285 365.154 574.465 365.328C573.646 365.502 572.793 365.429 572.015 365.119C571.238 364.808 570.569 364.274 570.095 363.583C569.62 362.893 569.361 362.077 569.351 361.24C569.34 360.402 569.577 359.58 570.034 358.878C570.49 358.175 571.145 357.624 571.914 357.293C572.684 356.963 573.534 356.868 574.358 357.021C575.182 357.174 575.941 357.567 576.541 358.152C577.346 358.936 577.806 360.007 577.82 361.13C577.835 362.253 577.403 363.336 576.619 364.141Z" fill="#E6E6E6"/>
<path d="M529.479 307.929L534.17 312.647L531.89 320.743L523.576 322.77L519.218 318.387C518.92 320.874 519.408 323.392 520.613 325.587C521.819 327.783 523.681 329.547 525.939 330.63C528.197 331.714 530.738 332.065 533.205 331.632C535.672 331.199 537.942 330.005 539.696 328.217C541.451 326.429 542.601 324.137 542.987 321.662C543.373 319.187 542.975 316.654 541.848 314.417C540.722 312.179 538.923 310.351 536.705 309.187C534.487 308.024 531.96 307.584 529.479 307.929Z" fill="#E6E6E6"/>
<path d="M548.738 352.358C548.314 352.358 547.891 352.334 547.47 352.288C545.001 352.001 542.702 350.889 540.945 349.132C539.187 347.375 538.076 345.075 537.79 342.606C537.614 341.066 537.766 339.507 538.235 338.029C538.704 336.552 539.48 335.19 540.512 334.034C541.544 332.877 542.809 331.952 544.224 331.318C545.638 330.684 547.171 330.357 548.721 330.356C549.211 330.359 549.701 330.396 550.187 330.466L583.765 294.721L580.26 283.036L597.865 275.145L602.799 287.205C604.452 291.29 604.744 295.799 603.631 300.064C602.519 304.328 600.06 308.12 596.622 310.877L559.661 340.278C559.7 340.636 559.72 340.996 559.721 341.356C559.72 342.903 559.393 344.433 558.762 345.845C558.13 347.257 557.209 348.521 556.057 349.553C554.051 351.366 551.442 352.366 548.738 352.358Z" fill="#FFB8B8"/>
<path d="M574.984 233.469C576.149 232.952 577.405 232.675 578.679 232.655C579.953 232.636 581.218 232.874 582.397 233.356C583.577 233.837 584.647 234.552 585.543 235.458C586.439 236.364 587.143 237.441 587.612 238.625L604.984 282.469L577.984 300.469L574.984 233.469Z" fill="#1D8BF1"/>
<path d="M448.49 243.707V25.2623C448.48 18.5652 445.816 12.1452 441.08 7.40962C436.345 2.67407 429.925 0.00947579 423.228 0H79.9576C73.2605 0.00947843 66.8405 2.67408 62.1049 7.40962C57.3694 12.1452 54.7048 18.5652 54.6953 25.2623V243.707C54.7048 250.404 57.3694 256.824 62.1049 261.56C66.8405 266.295 73.2605 268.96 79.9576 268.969H423.228C429.925 268.96 436.345 266.295 441.08 261.56C445.816 256.824 448.48 250.404 448.49 243.707ZM79.9576 265.997C74.0481 265.99 68.3826 263.639 64.2039 259.461C60.0253 255.282 57.6745 249.616 57.6674 243.707V25.2623C57.6745 19.3528 60.0253 13.6873 64.2039 9.50864C68.3826 5.32996 74.0481 2.97921 79.9576 2.97202H423.228C429.137 2.97921 434.803 5.32996 438.981 9.50864C443.16 13.6873 445.511 19.3528 445.518 25.2623V243.707C445.511 249.616 443.16 255.282 438.981 259.461C434.803 263.639 429.137 265.99 423.228 265.997H79.9576Z" fill="#3F3D56"/>
<path d="M445.516 39.304H57.6657C57.2716 39.304 56.8936 39.1475 56.6149 38.8688C56.3363 38.5901 56.1797 38.2121 56.1797 37.818C56.1797 37.4239 56.3363 37.046 56.6149 36.7673C56.8936 36.4886 57.2716 36.332 57.6657 36.332H445.516C445.91 36.332 446.288 36.4886 446.567 36.7673C446.846 37.046 447.002 37.4239 447.002 37.818C447.002 38.2121 446.846 38.5901 446.567 38.8688C446.288 39.1475 445.91 39.304 445.516 39.304Z" fill="#3F3D56"/>
<path d="M82.9223 28.2352C87.0258 28.2352 90.3524 24.9086 90.3524 20.8051C90.3524 16.7016 87.0258 13.375 82.9223 13.375C78.8188 13.375 75.4922 16.7016 75.4922 20.8051C75.4922 24.9086 78.8188 28.2352 82.9223 28.2352Z" fill="#1D8BF1"/>
<path d="M108.188 28.2352C112.291 28.2352 115.618 24.9086 115.618 20.8051C115.618 16.7016 112.291 13.375 108.188 13.375C104.084 13.375 100.758 16.7016 100.758 20.8051C100.758 24.9086 104.084 28.2352 108.188 28.2352Z" fill="#1D8BF1"/>
<path d="M133.454 28.2352C137.557 28.2352 140.884 24.9086 140.884 20.8051C140.884 16.7016 137.557 13.375 133.454 13.375C129.35 13.375 126.023 16.7016 126.023 20.8051C126.023 24.9086 129.35 28.2352 133.454 28.2352Z" fill="#1D8BF1"/>
<path d="M124.931 92H128.571L130.455 92.5034L132.087 93.1326L133.719 94.1393L134.974 95.1461L168.87 129.124L169.874 131.137L170 131.64V133.906L169.498 135.542L168.745 136.8L157.571 148L156.693 147.245L137.234 127.739L134.597 126.103L132.463 125.097L130.58 124.467L128.697 124.09H125.433L123.55 124.342L120.537 125.348L117.649 126.858L115.641 128.243L113.883 129.627L95.5541 148L95.0519 147.748L84.5065 137.178L83.7532 136.045L83.1255 134.535L83 133.906V131.64L83.6277 130.004L84.381 128.872L118.277 94.8944L119.909 93.7618L121.792 92.7551L123.801 92.1258L124.931 92Z" fill="#2450C8"/>
<path d="M112.764 138L112.891 138.502L112.764 139.505V142.264L113.4 144.898L114.418 147.156L115.564 148.786L116.709 150.041L117.855 151.044L119.636 152.173L121.927 153.176L123.836 153.678L124.855 153.803H128.036L130.455 153.302L132.873 152.298L134.527 151.295L135.927 150.166L136.945 149.163L138.218 147.407L139.236 145.275L139.745 143.644L140 141.763V138.753L140.891 139.505L154 152.424L153.873 152.925L134.782 171.739L133.509 172.742L131.6 173.871L129.436 174.624L128.673 174.875L127.655 175H123.964L121.927 174.498L120.4 173.871L119 173.119L117.218 171.739L98 152.8L98.2545 152.298L112.764 138Z" fill="#CF1310"/>
<path d="M125.75 134H127.625L129.375 134.487L130.625 135.096L131.75 135.948L132.875 137.165L133.625 138.626L134 140.33V142.035L133.5 143.617L132.75 144.957L131.625 146.174L130.625 146.904L129.375 147.513L128.25 147.878L127.25 148H125.375L123.875 147.635L122.125 146.783L120.625 145.443L119.875 144.348L119.375 143.374L119.125 142.643L119 141.67V140.33L119.375 138.626L120 137.409L120.875 136.313L122.125 135.217L123.875 134.365L124.625 134.122L125.75 134Z" fill="#CEB10A"/>
<path d="M125.448 102H127.552L129.162 102.495L130.4 103.238L131.638 104.352L132.505 105.714L133 107.324V109.676L132.505 111.286L131.638 112.648L130.524 113.762L129.162 114.505L128.171 114.876L127.429 115H125.2L123.838 114.505L122.724 113.886L121.486 112.771L120.619 111.41L120.124 110.171L120 109.552V107.571L120.371 106.21L121.114 104.724L122.105 103.61L123.343 102.743L124.457 102.248L125.448 102Z" fill="white"/>
<path d="M125.493 161H127.239L128.582 161.358L129.657 162.075L130.463 162.91L131 163.985V165.896L130.463 167.09L129.657 168.045L128.313 168.761L127.642 169H125.358L123.746 168.284L122.806 167.448L122.134 166.134L122 165.537V164.104L122.94 162.433L124.015 161.597L125.493 161Z" fill="white"/>
<path d="M203.596 99.44C203.951 98.7307 204.508 98.186 205.268 97.806C206.053 97.4007 206.978 97.198 208.042 97.198C209.714 97.198 211.044 97.806 212.032 99.022C213.045 100.213 213.552 102.125 213.552 104.76V118.326L222.254 97.958H226.738L227.764 117.186L227.65 118.288L236.694 97.958H241.9L229.74 123H221.646L220.886 111.448L215.87 123H206.712L205.572 104.76C205.496 103.392 205.268 102.265 204.888 101.378C204.533 100.466 204.103 99.82 203.596 99.44ZM255.034 116.578C255.667 117.009 255.984 117.705 255.984 118.668C255.984 119.605 255.743 120.378 255.262 120.986C254.781 121.594 254.147 122.101 253.362 122.506C251.741 123.342 250.056 123.76 248.308 123.76C246.56 123.76 245.167 123.57 244.128 123.19C243.115 122.81 242.266 122.265 241.582 121.556C240.239 120.213 239.568 118.313 239.568 115.856C239.568 112.031 240.607 108.953 242.684 106.622C244.913 104.114 247.966 102.86 251.842 102.86C254.249 102.86 256.047 103.367 257.238 104.38C258.125 105.14 258.568 106.141 258.568 107.382C258.568 111.841 254.717 114.07 247.016 114.07C246.915 114.729 246.864 115.337 246.864 115.894C246.864 117.059 247.117 117.87 247.624 118.326C248.156 118.757 248.903 118.972 249.866 118.972C250.829 118.972 251.817 118.757 252.83 118.326C253.869 117.87 254.603 117.287 255.034 116.578ZM247.282 112.436C249.081 112.436 250.499 111.879 251.538 110.764C252.577 109.7 253.096 108.319 253.096 106.622C253.096 106.039 252.982 105.596 252.754 105.292C252.551 104.963 252.235 104.798 251.804 104.798C251.373 104.798 250.968 104.887 250.588 105.064C250.233 105.216 249.866 105.571 249.486 106.128C248.549 107.395 247.814 109.497 247.282 112.436ZM268.951 120.91C268.165 122.81 266.519 123.76 264.011 123.76C262.744 123.76 261.705 123.317 260.895 122.43C260.236 121.695 259.907 120.91 259.907 120.074C259.907 118.174 260.35 115.147 261.237 110.992L264.011 96.4L271.725 95.64L268.039 114.868C267.608 116.743 267.393 118.009 267.393 118.668C267.393 120.112 267.912 120.859 268.951 120.91ZM290.847 107.192C290.847 108.256 290.404 109.117 289.517 109.776C288.63 110.435 287.465 110.764 286.021 110.764C285.413 110.764 284.932 110.675 284.577 110.498C284.856 109.839 285.033 109.105 285.109 108.294C285.21 107.458 285.261 106.926 285.261 106.698C285.261 105.634 284.894 105.102 284.159 105.102C283.652 105.102 283.108 105.419 282.525 106.052C281.968 106.685 281.448 107.496 280.967 108.484C279.903 110.764 279.371 113.057 279.371 115.362C279.371 116.629 279.612 117.553 280.093 118.136C280.574 118.693 281.347 118.972 282.411 118.972C283.88 118.972 285.198 118.364 286.363 117.148C286.692 116.768 286.946 116.363 287.123 115.932C288.086 116.439 288.567 117.389 288.567 118.782C288.567 120.201 287.782 121.379 286.211 122.316C284.59 123.279 282.487 123.76 279.903 123.76C274.76 123.76 272.189 121.037 272.189 115.59C272.189 111.613 273.316 108.484 275.571 106.204C277.75 103.975 280.84 102.86 284.843 102.86C288.846 102.86 290.847 104.304 290.847 107.192ZM300.141 123.76C294.568 123.76 291.781 121.138 291.781 115.894C291.781 112.17 292.807 109.105 294.859 106.698C297.038 104.139 300.014 102.86 303.789 102.86C306.525 102.86 308.59 103.493 309.983 104.76C311.376 106.027 312.073 107.99 312.073 110.65C312.073 114.703 310.984 117.908 308.805 120.264C306.677 122.595 303.789 123.76 300.141 123.76ZM301.129 107.23C300.825 107.914 300.546 108.775 300.293 109.814C300.065 110.827 299.799 112.145 299.495 113.766C299.191 115.387 299.039 117.199 299.039 119.2C299.039 119.859 299.14 120.403 299.343 120.834C299.571 121.265 299.976 121.48 300.559 121.48C301.142 121.48 301.61 121.341 301.965 121.062C302.345 120.783 302.674 120.315 302.953 119.656C303.46 118.491 303.916 116.831 304.321 114.678C304.726 112.499 304.942 110.941 304.967 110.004C305.018 109.067 305.043 108.256 305.043 107.572C305.043 106.863 304.942 106.28 304.739 105.824C304.536 105.368 304.144 105.14 303.561 105.14C303.004 105.14 302.535 105.317 302.155 105.672C301.775 106.027 301.433 106.546 301.129 107.23ZM341.668 123.76C338.603 123.76 337.07 122.569 337.07 120.188C337.07 119.149 337.285 117.629 337.716 115.628C338.172 113.601 338.476 112.183 338.628 111.372C338.983 109.523 339.16 108.307 339.16 107.724C339.16 106.432 338.679 105.786 337.716 105.786C337.083 105.786 336.462 106.229 335.854 107.116C335.246 107.977 334.803 109.282 334.524 111.03L332.168 123L324.758 123.76L326.81 113.424C327.038 112.284 327.253 111.068 327.456 109.776C327.659 108.484 327.76 107.737 327.76 107.534C327.76 106.369 327.329 105.786 326.468 105.786C325.885 105.786 325.277 106.217 324.644 107.078C324.011 107.939 323.517 109.257 323.162 111.03L320.844 123L313.358 123.76L317.348 103.62L323.542 102.86L322.896 106.698C323.555 105.33 324.492 104.355 325.708 103.772C326.924 103.164 328.482 102.86 330.382 102.86C331.471 102.86 332.371 103.126 333.08 103.658C333.789 104.19 334.258 104.887 334.486 105.748C334.917 104.861 335.677 104.165 336.766 103.658C337.881 103.126 339.109 102.86 340.452 102.86C341.82 102.86 342.833 103.012 343.492 103.316C344.176 103.595 344.721 103.975 345.126 104.456C345.81 105.343 346.152 106.597 346.152 108.218C346.152 109.814 345.81 112.271 345.126 115.59C344.771 117.211 344.594 118.326 344.594 118.934C344.594 119.517 344.759 119.985 345.088 120.34C345.443 120.695 345.873 120.897 346.38 120.948C346.127 121.809 345.557 122.493 344.67 123C343.809 123.507 342.808 123.76 341.668 123.76ZM364.692 116.578C365.326 117.009 365.642 117.705 365.642 118.668C365.642 119.605 365.402 120.378 364.92 120.986C364.439 121.594 363.806 122.101 363.02 122.506C361.399 123.342 359.714 123.76 357.966 123.76C356.218 123.76 354.825 123.57 353.786 123.19C352.773 122.81 351.924 122.265 351.24 121.556C349.898 120.213 349.226 118.313 349.226 115.856C349.226 112.031 350.265 108.953 352.342 106.622C354.572 104.114 357.624 102.86 361.5 102.86C363.907 102.86 365.706 103.367 366.896 104.38C367.783 105.14 368.226 106.141 368.226 107.382C368.226 111.841 364.376 114.07 356.674 114.07C356.573 114.729 356.522 115.337 356.522 115.894C356.522 117.059 356.776 117.87 357.282 118.326C357.814 118.757 358.562 118.972 359.524 118.972C360.487 118.972 361.475 118.757 362.488 118.326C363.527 117.87 364.262 117.287 364.692 116.578ZM356.94 112.436C358.739 112.436 360.158 111.879 361.196 110.764C362.235 109.7 362.754 108.319 362.754 106.622C362.754 106.039 362.64 105.596 362.412 105.292C362.21 104.963 361.893 104.798 361.462 104.798C361.032 104.798 360.626 104.887 360.246 105.064C359.892 105.216 359.524 105.571 359.144 106.128C358.207 107.395 357.472 109.497 356.94 112.436ZM377.965 119.2C377.965 118.516 378.142 117.313 378.497 115.59L380.511 105.33H378.269L378.421 104.19C381.461 103.278 384.45 101.707 387.389 99.478H389.213L388.301 103.62H391.265L390.923 105.33H387.997L386.059 115.59C385.73 117.161 385.565 118.212 385.565 118.744C385.565 119.96 386.097 120.695 387.161 120.948C386.908 121.809 386.325 122.493 385.413 123C384.501 123.507 383.399 123.76 382.107 123.76C380.815 123.76 379.802 123.355 379.067 122.544C378.332 121.733 377.965 120.619 377.965 119.2ZM399.223 123.76C393.65 123.76 390.863 121.138 390.863 115.894C390.863 112.17 391.889 109.105 393.941 106.698C396.12 104.139 399.096 102.86 402.871 102.86C405.607 102.86 407.672 103.493 409.065 104.76C410.458 106.027 411.155 107.99 411.155 110.65C411.155 114.703 410.066 117.908 407.887 120.264C405.759 122.595 402.871 123.76 399.223 123.76ZM400.211 107.23C399.907 107.914 399.628 108.775 399.375 109.814C399.147 110.827 398.881 112.145 398.577 113.766C398.273 115.387 398.121 117.199 398.121 119.2C398.121 119.859 398.222 120.403 398.425 120.834C398.653 121.265 399.058 121.48 399.641 121.48C400.224 121.48 400.692 121.341 401.047 121.062C401.427 120.783 401.756 120.315 402.035 119.656C402.542 118.491 402.998 116.831 403.403 114.678C403.808 112.499 404.024 110.941 404.049 110.004C404.1 109.067 404.125 108.256 404.125 107.572C404.125 106.863 404.024 106.28 403.821 105.824C403.618 105.368 403.226 105.14 402.643 105.14C402.086 105.14 401.617 105.317 401.237 105.672C400.857 106.027 400.515 106.546 400.211 107.23Z" fill="#FF0000"/>
<path d="M219.328 167.76C216.085 167.76 214.312 165.455 214.008 160.844H207.472C206.965 162.009 206.535 163.099 206.18 164.112L205.192 167H199.872L211.842 141.92H220.012L221.608 160.388C221.861 163.048 222.495 164.771 223.508 165.556C222.773 167.025 221.38 167.76 219.328 167.76ZM208.65 158.07H213.894L213.438 148.304V147.278L210.74 153.244L208.65 158.07ZM241.954 161.148C242.435 161.756 242.676 162.554 242.676 163.542C242.676 164.91 242.169 165.961 241.156 166.696C240.143 167.405 238.838 167.76 237.242 167.76C236.33 167.76 235.177 167.659 233.784 167.456C231.048 167.025 229.262 166.81 228.426 166.81C227.59 166.81 227.007 166.835 226.678 166.886C226.349 166.911 225.918 166.949 225.386 167L230.06 141.92H246.438C246.438 143.465 246.058 144.643 245.298 145.454C244.563 146.265 243.461 146.67 241.992 146.67C240.523 146.67 239.041 146.328 237.546 145.644L236.368 152.294H243.132C243.132 153.637 242.803 154.688 242.144 155.448C241.485 156.183 240.599 156.55 239.484 156.55C238.395 156.55 237.508 156.423 236.824 156.17C236.14 155.917 235.76 155.752 235.684 155.676L234.316 162.858C234.924 162.934 235.798 162.972 236.938 162.972C238.889 162.972 240.561 162.364 241.954 161.148ZM269.241 154.08C267.417 158.083 266.505 162.402 266.505 167.038C265.821 167.519 264.973 167.76 263.959 167.76C262.971 167.76 262.161 167.519 261.527 167.038C260.894 166.582 260.514 166.113 260.387 165.632C259.754 166.291 258.918 166.81 257.879 167.19C256.866 167.57 255.815 167.76 254.725 167.76C253.636 167.76 252.61 167.583 251.647 167.228C250.71 166.873 249.874 166.303 249.139 165.518C247.518 163.795 246.707 161.3 246.707 158.032C246.707 152.965 248.063 148.912 250.773 145.872C253.56 142.731 257.423 141.16 262.363 141.16C265.783 141.16 268.101 142.047 269.317 143.82C269.697 144.377 269.887 144.998 269.887 145.682C269.887 146.341 269.735 146.961 269.431 147.544C269.153 148.101 268.785 148.608 268.329 149.064C267.24 150.077 266.024 150.584 264.681 150.584C264.149 150.584 263.63 150.495 263.123 150.318C263.225 149.558 263.275 148.735 263.275 147.848C263.275 146.961 263.237 146.315 263.161 145.91C263.111 145.505 263.009 145.137 262.857 144.808C262.528 144.124 261.996 143.782 261.261 143.782C260.552 143.782 259.792 144.175 258.981 144.96C258.196 145.72 257.487 146.733 256.853 148C255.46 150.837 254.763 153.966 254.763 157.386C254.763 158.957 255.067 160.299 255.675 161.414C256.334 162.63 257.246 163.238 258.411 163.238C258.817 163.238 259.197 163.137 259.551 162.934C259.931 162.731 260.197 162.554 260.349 162.402L261.565 154.764L269.241 154.08ZM270.695 167L275.521 141.92H283.881L278.979 167H270.695ZM299.552 149.444C299.932 148.684 300.122 147.949 300.122 147.24C300.122 146.531 300.084 145.986 300.008 145.606C299.932 145.201 299.805 144.846 299.628 144.542C299.248 143.883 298.678 143.554 297.918 143.554C296.981 143.554 296.132 143.896 295.372 144.58C294.561 145.289 294.156 146.201 294.156 147.316C294.156 148.025 294.397 148.659 294.878 149.216C295.385 149.748 296.018 150.267 296.778 150.774C297.538 151.281 298.349 151.787 299.21 152.294C300.071 152.801 300.882 153.358 301.642 153.966C303.39 155.359 304.264 156.993 304.264 158.868C304.264 160.135 303.922 161.313 303.238 162.402C302.579 163.466 301.693 164.391 300.578 165.176C298.146 166.899 295.321 167.76 292.104 167.76C289.495 167.76 287.519 167.342 286.176 166.506C284.833 165.645 284.162 164.568 284.162 163.276C284.162 160.971 285.061 159.527 286.86 158.944C287.367 158.767 288 158.678 288.76 158.678C289.545 158.678 290.381 158.843 291.268 159.172C290.863 160.211 290.66 161.199 290.66 162.136C290.66 164.163 291.382 165.176 292.826 165.176C293.763 165.176 294.612 164.834 295.372 164.15C296.157 163.466 296.55 162.744 296.55 161.984C296.55 161.199 296.297 160.527 295.79 159.97C295.309 159.413 294.701 158.919 293.966 158.488C293.231 158.032 292.433 157.589 291.572 157.158C290.736 156.727 289.951 156.208 289.216 155.6C287.493 154.207 286.632 152.395 286.632 150.166C286.632 148.722 286.987 147.443 287.696 146.328C288.405 145.188 289.33 144.238 290.47 143.478C292.75 141.933 295.283 141.16 298.07 141.16C300.882 141.16 302.959 141.578 304.302 142.414C305.67 143.25 306.354 144.377 306.354 145.796C306.354 147.037 305.873 148.051 304.91 148.836C304.074 149.495 303.149 149.824 302.136 149.824C301.123 149.824 300.261 149.697 299.552 149.444Z" fill="#1D8BF1"/>
</g>
<defs>
<clipPath id="clip0_89_430">
<rect width="690" height="448.759" fill="white"/>
</clipPath>
</defs>
</svg>
